<svg width="230" height="69" viewBox="0 0 230 69" fill="none" xmlns="http://www.w3.org/2000/svg">
<path d="M205.08 23.3041L224.994 57.3147L184.294 56.7879L205.08 23.3041Z" fill="#81948B"/>
<path d="M205.5 45.0324L185.195 11.2543L225.898 11.3106L205.5 45.0324Z" fill="#81948B"/>
<path d="M24.0804 23.3041L43.9935 57.3147L3.29373 56.7879L24.0804 23.3041Z" fill="#81948B"/>
<path d="M24.5 45.0324L4.19507 11.2543L44.8982 11.3106L24.5 45.0324Z" fill="#81948B"/>
<rect x="24" y="5" width="181" height="59" fill="#81948B"/>
<path d="M69.149 24.945L69.699 27.53C69.699 28.1533 69.479 28.6667 69.039 29.07C68.599 29.4733 68.0857 29.675 67.499 29.675C66.9123 29.675 66.4723 29.4 66.179 28.85C65.9223 28.3 65.794 27.695 65.794 27.035C65.794 25.055 66.6373 23.2767 68.324 21.7C70.0473 20.0867 71.9907 19.28 74.154 19.28H74.484C75.2173 16.4933 76.3173 15.1 77.784 15.1C78.224 15.1 78.444 15.6867 78.444 16.86C78.444 17.08 78.389 17.96 78.279 19.5C78.829 19.5733 79.4707 19.665 80.204 19.775C81.9273 20.0317 83.3573 20.16 84.494 20.16C85.6673 20.16 86.8407 19.9767 88.014 19.61C89.224 19.2067 90.0307 19.005 90.434 19.005C91.4607 19.005 91.974 19.5367 91.974 20.6C91.974 21.6267 91.424 22.415 90.324 22.965C89.224 23.4783 87.629 23.735 85.539 23.735C83.449 23.735 80.9007 23.2583 77.894 22.305C77.454 24.835 77.1973 26.7417 77.124 28.025C77.0507 29.3083 76.9773 31.215 76.904 33.745C78.444 33.6717 80.5707 33.635 83.284 33.635C83.7607 33.635 84.164 33.8183 84.494 34.185C84.8607 34.5517 85.044 34.9367 85.044 35.34C85.044 35.7433 84.9157 36.0733 84.659 36.33C84.4023 36.5867 84.1273 36.715 83.834 36.715L76.849 36.33C76.7023 39.9233 76.574 42.3617 76.464 43.645C76.3907 44.9283 76.0423 46.12 75.419 47.22C74.7957 48.32 74.0623 48.87 73.219 48.87C72.7423 48.87 72.2107 48.6133 71.624 48.1C71.074 47.6233 70.799 47.165 70.799 46.725C70.799 46.285 70.854 45.955 70.964 45.735C71.1107 45.4783 71.2573 45.24 71.404 45.02C71.5873 44.7633 71.7157 44.5617 71.789 44.415C72.229 43.4617 72.6323 40.84 72.999 36.55L70.854 36.825C70.5607 36.825 70.3223 36.7333 70.139 36.55C69.9557 36.33 69.864 36.0917 69.864 35.835C69.864 35.5417 69.919 35.285 70.029 35.065C70.139 34.845 70.359 34.68 70.689 34.57C71.019 34.4233 71.2573 34.3317 71.404 34.295C71.9907 34.1483 72.5773 34.075 73.164 34.075C73.2373 33.195 73.329 31.2883 73.439 28.355C73.5857 25.4217 73.7873 23.13 74.044 21.48C73.824 21.4433 73.494 21.425 73.054 21.425C70.4507 21.425 69.149 22.5983 69.149 24.945ZM90.9939 20.105C90.9939 19.445 91.3422 18.8767 92.0389 18.4C92.7356 17.9233 93.3589 17.685 93.9089 17.685C94.8989 17.685 95.3939 18.2533 95.3939 19.39C95.3939 20.5267 95.1006 21.5167 94.5139 22.36C93.9272 23.1667 93.1022 23.57 92.0389 23.57C91.3422 23.57 90.9939 22.415 90.9939 20.105ZM92.5889 47.275C91.1589 47.275 90.0772 46.9817 89.3439 46.395C89.0872 46.1383 88.9589 45.2217 88.9589 43.645C88.9589 42.0683 89.0689 39.4467 89.2889 35.78C89.5456 32.0767 89.7656 30.0783 89.9489 29.785C90.1322 29.4917 90.7006 28.9417 91.6539 28.135C92.6072 27.3283 93.3406 26.925 93.8539 26.925C94.4039 26.925 94.6789 27.6217 94.6789 29.015C94.6789 29.3817 94.5689 30.0967 94.3489 31.16C94.1656 32.2233 93.9456 32.9933 93.6889 33.47C93.2122 34.68 92.9739 37.8517 92.9739 42.985C92.9739 43.975 93.0839 44.47 93.3039 44.47C93.9272 44.4333 94.7889 43.6633 95.8889 42.16C96.9889 40.62 98.0706 38.6583 99.1339 36.275C100.234 33.8917 100.894 32.7 101.114 32.7C101.371 32.7 101.499 32.8467 101.499 33.14C101.499 34.1667 100.967 35.7983 99.9039 38.035C97.0072 44.195 94.5689 47.275 92.5889 47.275ZM106.383 47.275C104.33 47.275 102.698 46.505 101.488 44.965C100.278 43.3883 99.6731 41.61 99.6731 39.63C99.6731 35.6333 100.516 32.6083 102.203 30.555C103.89 28.5017 106.071 27.475 108.748 27.475C109.995 27.475 111.021 27.8233 111.828 28.52C112.635 29.18 113.038 30.0967 113.038 31.27C113.038 33.47 112.103 35.3217 110.233 36.825C108.4 38.2917 106.145 39.0617 103.468 39.135C103.615 40.565 104.091 41.8117 104.898 42.875C105.741 43.9017 106.713 44.415 107.813 44.415C108.913 44.415 109.903 44.1583 110.783 43.645C111.663 43.1317 112.47 42.3983 113.203 41.445C114.743 39.4283 116.063 37.1367 117.163 34.57C117.456 33.91 117.676 33.4333 117.823 33.14C118.006 32.8467 118.19 32.7 118.373 32.7C118.593 32.7 118.703 32.8467 118.703 33.14C118.703 34.9733 117.585 37.7233 115.348 41.39C112.928 45.3133 109.94 47.275 106.383 47.275ZM103.468 37.815C105.631 37.4483 107.208 36.7517 108.198 35.725C109.225 34.6983 109.738 33.36 109.738 31.71C109.738 30.06 109.206 29.235 108.143 29.235C106.86 29.235 105.778 30.1333 104.898 31.93C104.018 33.69 103.541 35.6517 103.468 37.815ZM125.026 30.17L125.136 29.345C125.136 28.685 124.751 28.355 123.981 28.355C123.248 28.355 122.533 28.85 121.836 29.84C121.14 30.7933 120.791 31.5817 120.791 32.205C120.791 32.8283 120.828 33.3233 120.901 33.69C120.975 34.0567 121.048 34.3683 121.121 34.625C121.231 34.845 121.396 35.12 121.616 35.45C121.836 35.78 122.001 36.0183 122.111 36.165L122.716 36.935C122.973 37.3017 123.156 37.54 123.266 37.65C125.173 36.0733 127.446 34.3133 130.086 32.37C130.233 32.26 130.398 32.205 130.581 32.205C130.948 32.205 131.131 32.4067 131.131 32.81C131.131 33.2133 130.966 33.525 130.636 33.745C128.29 35.2483 126.071 36.88 123.981 38.64C124.788 39.8133 125.191 41.0967 125.191 42.49C125.191 43.8833 124.66 45.075 123.596 46.065C122.533 47.055 121.176 47.55 119.526 47.55C117.876 47.55 117.051 46.7617 117.051 45.185C117.051 44.0483 118.261 42.3067 120.681 39.96C120.498 39.74 120.168 39.3917 119.691 38.915C119.215 38.4017 118.848 37.9983 118.591 37.705C118.371 37.4117 118.096 37.0267 117.766 36.55C117.18 35.6333 116.886 34.6433 116.886 33.58C116.886 31.4167 117.583 29.675 118.976 28.355C120.37 26.9983 121.855 26.32 123.431 26.32C124.421 26.32 125.191 26.595 125.741 27.145C126.291 27.6583 126.566 28.19 126.566 28.74C126.566 29.9867 126.273 30.61 125.686 30.61C125.246 30.61 125.026 30.4633 125.026 30.17ZM121.506 41.005C120.04 42.4717 119.306 43.6633 119.306 44.58C119.306 45.46 119.765 45.9 120.681 45.9C121.231 45.9 121.69 45.68 122.056 45.24C122.863 44.14 122.68 42.7283 121.506 41.005ZM141.747 38.035C138.85 44.195 136.394 47.275 134.377 47.275C132.397 47.275 131.224 47.0367 130.857 46.56C130.527 46.0833 130.362 44.5067 130.362 41.83C130.362 39.1533 130.619 35.285 131.132 30.225C129.299 29.8583 128.327 29.1067 128.217 27.97C128.217 27.3833 128.602 27.09 129.372 27.09C130.142 27.09 130.82 27.2367 131.407 27.53C131.737 24.89 132.122 22.2133 132.562 19.5C132.672 18.8033 133.02 18.1433 133.607 17.52C134.194 16.8967 134.762 16.585 135.312 16.585C135.789 16.585 136.027 17.3367 136.027 18.84C136.027 19.5367 135.77 22.745 135.257 28.465C136.247 28.2817 137.329 27.915 138.502 27.365C139.712 26.815 140.427 26.54 140.647 26.54C141.307 26.54 141.637 26.7417 141.637 27.145C141.674 27.5117 140.995 28.025 139.602 28.685C138.209 29.3083 136.705 29.785 135.092 30.115C134.652 35.4683 134.432 39.52 134.432 42.27C134.432 43.7367 134.652 44.47 135.092 44.47C135.752 44.4333 136.632 43.6633 137.732 42.16C138.832 40.6567 139.914 38.7133 140.977 36.33C142.077 33.91 142.737 32.7 142.957 32.7C143.214 32.7 143.342 32.8467 143.342 33.14C143.342 34.1667 142.81 35.7983 141.747 38.035ZM157.046 47.275C155.616 47.275 154.535 46.9817 153.801 46.395C153.545 46.1383 153.416 45.4967 153.416 44.47C153.416 43.4067 153.453 41.995 153.526 40.235C152.573 42.6183 151.62 44.3967 150.666 45.57C149.75 46.7067 148.558 47.275 147.091 47.275C145.625 47.275 144.341 46.5967 143.241 45.24C142.141 43.8467 141.591 41.6833 141.591 38.75C141.591 35.78 142.416 33.1583 144.066 30.885C145.753 28.6117 147.953 27.475 150.666 27.475C151.84 27.475 153.16 28.245 154.626 29.785C154.92 29.3817 155.433 28.905 156.166 28.355C156.936 27.7683 157.578 27.475 158.091 27.475C158.641 27.475 158.916 28.1717 158.916 29.565C158.916 29.9317 158.806 30.6467 158.586 31.71C158.403 32.7733 158.183 33.5433 157.926 34.02C157.596 34.8633 157.431 37.8517 157.431 42.985C157.431 43.975 157.541 44.47 157.761 44.47C158.385 44.4333 159.246 43.6633 160.346 42.16C161.446 40.62 162.528 38.6583 163.591 36.275C164.691 33.8917 165.351 32.7 165.571 32.7C165.828 32.7 165.956 32.8467 165.956 33.14C165.956 34.1667 165.425 35.7983 164.361 38.035C161.465 44.195 159.026 47.275 157.046 47.275ZM150.336 29.675C149.31 29.675 148.21 30.445 147.036 31.985C145.9 33.4883 145.331 35.2667 145.331 37.32C145.331 39.3733 145.625 41.06 146.211 42.38C146.835 43.7 147.641 44.36 148.631 44.36C149.841 44.36 151.62 41.335 153.966 35.285C154.003 34.9917 154.04 34.4967 154.076 33.8C154.15 33.0667 154.205 32.5167 154.241 32.15C153.911 31.5633 153.325 31.0133 152.481 30.5C151.675 29.95 150.96 29.675 150.336 29.675Z" fill="white"/>
</svg>
