<svg width="360" height="640" viewBox="0 0 360 640" fill="none" xmlns="http://www.w3.org/2000/svg">
<rect width="360" height="640" fill="white"/>
<line x1="47" y1="107.5" x2="106" y2="107.5" stroke="black"/>
<line x1="47" y1="107.5" x2="106" y2="107.5" stroke="black"/>
<line x1="257" y1="107.5" x2="316" y2="107.5" stroke="black"/>
<line x1="257" y1="107.5" x2="316" y2="107.5" stroke="black"/>
<path d="M141.42 108.842C141.42 110.001 141.332 111.036 141.156 111.947C140.98 112.859 140.704 113.63 140.326 114.262C139.949 114.893 139.46 115.375 138.861 115.707C138.262 116.033 137.543 116.195 136.703 116.195C135.642 116.195 134.763 115.906 134.066 115.326C133.376 114.747 132.859 113.91 132.514 112.816C132.175 111.716 132.006 110.391 132.006 108.842C132.006 107.318 132.159 106.01 132.465 104.916C132.777 103.816 133.279 102.973 133.969 102.387C134.659 101.794 135.57 101.498 136.703 101.498C137.777 101.498 138.663 101.791 139.359 102.377C140.056 102.956 140.574 103.796 140.912 104.896C141.251 105.99 141.42 107.305 141.42 108.842ZM133.637 108.842C133.637 110.17 133.738 111.277 133.939 112.162C134.141 113.048 134.467 113.712 134.916 114.154C135.372 114.59 135.967 114.809 136.703 114.809C137.439 114.809 138.031 114.59 138.48 114.154C138.936 113.718 139.265 113.057 139.467 112.172C139.675 111.286 139.779 110.176 139.779 108.842C139.779 107.533 139.678 106.439 139.477 105.561C139.275 104.675 138.949 104.011 138.5 103.568C138.051 103.119 137.452 102.895 136.703 102.895C135.954 102.895 135.355 103.119 134.906 103.568C134.457 104.011 134.132 104.675 133.93 105.561C133.734 106.439 133.637 107.533 133.637 108.842ZM143.578 109.896C143.578 109.037 143.637 108.197 143.754 107.377C143.878 106.557 144.083 105.795 144.369 105.092C144.656 104.382 145.046 103.76 145.541 103.227C146.036 102.693 146.651 102.276 147.387 101.977C148.129 101.671 149.018 101.518 150.053 101.518C150.346 101.518 150.661 101.534 151 101.566C151.339 101.592 151.618 101.638 151.84 101.703V103.1C151.599 103.015 151.322 102.953 151.01 102.914C150.704 102.875 150.395 102.855 150.082 102.855C148.871 102.855 147.917 103.119 147.221 103.646C146.531 104.174 146.033 104.89 145.727 105.795C145.421 106.693 145.245 107.706 145.199 108.832H145.307C145.508 108.507 145.766 108.214 146.078 107.953C146.391 107.686 146.768 107.475 147.211 107.318C147.66 107.162 148.181 107.084 148.773 107.084C149.607 107.084 150.333 107.253 150.951 107.592C151.576 107.93 152.058 108.422 152.396 109.066C152.742 109.711 152.914 110.492 152.914 111.41C152.914 112.393 152.732 113.243 152.367 113.959C152.003 114.675 151.482 115.229 150.805 115.619C150.134 116.003 149.333 116.195 148.402 116.195C147.706 116.195 147.064 116.062 146.479 115.795C145.893 115.528 145.382 115.131 144.945 114.604C144.516 114.076 144.18 113.422 143.939 112.641C143.699 111.853 143.578 110.938 143.578 109.896ZM148.383 114.828C149.268 114.828 149.978 114.545 150.512 113.979C151.046 113.412 151.312 112.556 151.312 111.41C151.312 110.473 151.075 109.73 150.6 109.184C150.124 108.637 149.408 108.363 148.451 108.363C147.8 108.363 147.234 108.5 146.752 108.773C146.27 109.04 145.896 109.379 145.629 109.789C145.362 110.199 145.229 110.616 145.229 111.039C145.229 111.469 145.29 111.905 145.414 112.348C145.544 112.79 145.74 113.201 146 113.578C146.26 113.956 146.589 114.258 146.986 114.486C147.383 114.714 147.849 114.828 148.383 114.828ZM155.355 114.984C155.355 114.529 155.466 114.206 155.688 114.018C155.909 113.822 156.179 113.725 156.498 113.725C156.83 113.725 157.11 113.822 157.338 114.018C157.566 114.206 157.68 114.529 157.68 114.984C157.68 115.434 157.566 115.762 157.338 115.971C157.11 116.173 156.83 116.273 156.498 116.273C156.179 116.273 155.909 116.173 155.688 115.971C155.466 115.762 155.355 115.434 155.355 114.984ZM169.564 108.842C169.564 110.001 169.477 111.036 169.301 111.947C169.125 112.859 168.848 113.63 168.471 114.262C168.093 114.893 167.605 115.375 167.006 115.707C166.407 116.033 165.688 116.195 164.848 116.195C163.786 116.195 162.908 115.906 162.211 115.326C161.521 114.747 161.003 113.91 160.658 112.816C160.32 111.716 160.15 110.391 160.15 108.842C160.15 107.318 160.303 106.01 160.609 104.916C160.922 103.816 161.423 102.973 162.113 102.387C162.803 101.794 163.715 101.498 164.848 101.498C165.922 101.498 166.807 101.791 167.504 102.377C168.201 102.956 168.718 103.796 169.057 104.896C169.395 105.99 169.564 107.305 169.564 108.842ZM161.781 108.842C161.781 110.17 161.882 111.277 162.084 112.162C162.286 113.048 162.611 113.712 163.061 114.154C163.516 114.59 164.112 114.809 164.848 114.809C165.583 114.809 166.176 114.59 166.625 114.154C167.081 113.718 167.41 113.057 167.611 112.172C167.82 111.286 167.924 110.176 167.924 108.842C167.924 107.533 167.823 106.439 167.621 105.561C167.419 104.675 167.094 104.011 166.645 103.568C166.195 103.119 165.596 102.895 164.848 102.895C164.099 102.895 163.5 103.119 163.051 103.568C162.602 104.011 162.276 104.675 162.074 105.561C161.879 106.439 161.781 107.533 161.781 108.842ZM176.293 101.518C177.12 101.518 177.852 101.648 178.49 101.908C179.128 102.169 179.626 102.553 179.984 103.061C180.349 103.562 180.531 104.18 180.531 104.916C180.531 105.495 180.404 106.003 180.15 106.439C179.903 106.869 179.568 107.247 179.145 107.572C178.721 107.891 178.253 108.178 177.738 108.432C178.35 108.712 178.9 109.027 179.389 109.379C179.883 109.73 180.274 110.144 180.561 110.619C180.847 111.094 180.99 111.658 180.99 112.309C180.99 113.109 180.795 113.803 180.404 114.389C180.02 114.968 179.48 115.414 178.783 115.727C178.087 116.039 177.27 116.195 176.332 116.195C175.323 116.195 174.464 116.046 173.754 115.746C173.051 115.44 172.514 115.004 172.143 114.438C171.778 113.865 171.596 113.178 171.596 112.377C171.596 111.719 171.736 111.15 172.016 110.668C172.296 110.18 172.667 109.76 173.129 109.408C173.591 109.057 174.096 108.76 174.643 108.52C174.167 108.259 173.731 107.963 173.334 107.631C172.943 107.299 172.631 106.911 172.396 106.469C172.169 106.02 172.055 105.499 172.055 104.906C172.055 104.184 172.237 103.572 172.602 103.07C172.973 102.562 173.477 102.178 174.115 101.918C174.76 101.651 175.486 101.518 176.293 101.518ZM173.188 112.387C173.188 113.116 173.445 113.718 173.959 114.193C174.473 114.662 175.251 114.896 176.293 114.896C177.283 114.896 178.048 114.662 178.588 114.193C179.128 113.718 179.398 113.096 179.398 112.328C179.398 111.853 179.275 111.436 179.027 111.078C178.78 110.714 178.428 110.388 177.973 110.102C177.517 109.815 176.98 109.555 176.361 109.32L176.01 109.193C175.411 109.441 174.9 109.717 174.477 110.023C174.06 110.323 173.741 110.665 173.52 111.049C173.298 111.433 173.188 111.879 173.188 112.387ZM176.273 102.846C175.505 102.846 174.877 103.031 174.389 103.402C173.9 103.767 173.656 104.294 173.656 104.984C173.656 105.479 173.773 105.899 174.008 106.244C174.249 106.583 174.574 106.876 174.984 107.123C175.395 107.364 175.854 107.589 176.361 107.797C176.856 107.589 177.296 107.361 177.68 107.113C178.064 106.859 178.367 106.56 178.588 106.215C178.809 105.87 178.92 105.456 178.92 104.975C178.92 104.285 178.676 103.757 178.188 103.393C177.706 103.028 177.068 102.846 176.273 102.846ZM183.5 114.984C183.5 114.529 183.611 114.206 183.832 114.018C184.053 113.822 184.324 113.725 184.643 113.725C184.975 113.725 185.255 113.822 185.482 114.018C185.71 114.206 185.824 114.529 185.824 114.984C185.824 115.434 185.71 115.762 185.482 115.971C185.255 116.173 184.975 116.273 184.643 116.273C184.324 116.273 184.053 116.173 183.832 115.971C183.611 115.762 183.5 115.434 183.5 114.984ZM197.631 116H188.275V114.643L192.094 110.766C192.803 110.049 193.399 109.411 193.881 108.852C194.369 108.292 194.74 107.742 194.994 107.201C195.248 106.654 195.375 106.055 195.375 105.404C195.375 104.597 195.134 103.982 194.652 103.559C194.177 103.129 193.549 102.914 192.768 102.914C192.084 102.914 191.479 103.031 190.951 103.266C190.424 103.5 189.883 103.832 189.33 104.262L188.461 103.168C188.839 102.849 189.249 102.566 189.691 102.318C190.141 102.071 190.619 101.876 191.127 101.732C191.641 101.589 192.188 101.518 192.768 101.518C193.646 101.518 194.405 101.671 195.043 101.977C195.681 102.283 196.173 102.719 196.518 103.285C196.869 103.852 197.045 104.525 197.045 105.307C197.045 106.062 196.895 106.765 196.596 107.416C196.296 108.061 195.876 108.702 195.336 109.34C194.796 109.971 194.164 110.642 193.441 111.352L190.336 114.447V114.516H197.631V116ZM209.154 108.842C209.154 110.001 209.066 111.036 208.891 111.947C208.715 112.859 208.438 113.63 208.061 114.262C207.683 114.893 207.195 115.375 206.596 115.707C205.997 116.033 205.277 116.195 204.438 116.195C203.376 116.195 202.497 115.906 201.801 115.326C201.111 114.747 200.593 113.91 200.248 112.816C199.91 111.716 199.74 110.391 199.74 108.842C199.74 107.318 199.893 106.01 200.199 104.916C200.512 103.816 201.013 102.973 201.703 102.387C202.393 101.794 203.305 101.498 204.438 101.498C205.512 101.498 206.397 101.791 207.094 102.377C207.79 102.956 208.308 103.796 208.646 104.896C208.985 105.99 209.154 107.305 209.154 108.842ZM201.371 108.842C201.371 110.17 201.472 111.277 201.674 112.162C201.876 113.048 202.201 113.712 202.65 114.154C203.106 114.59 203.702 114.809 204.438 114.809C205.173 114.809 205.766 114.59 206.215 114.154C206.671 113.718 206.999 113.057 207.201 112.172C207.41 111.286 207.514 110.176 207.514 108.842C207.514 107.533 207.413 106.439 207.211 105.561C207.009 104.675 206.684 104.011 206.234 103.568C205.785 103.119 205.186 102.895 204.438 102.895C203.689 102.895 203.09 103.119 202.641 103.568C202.191 104.011 201.866 104.675 201.664 105.561C201.469 106.439 201.371 107.533 201.371 108.842ZM220.521 116H211.166V114.643L214.984 110.766C215.694 110.049 216.29 109.411 216.771 108.852C217.26 108.292 217.631 107.742 217.885 107.201C218.139 106.654 218.266 106.055 218.266 105.404C218.266 104.597 218.025 103.982 217.543 103.559C217.068 103.129 216.439 102.914 215.658 102.914C214.975 102.914 214.369 103.031 213.842 103.266C213.314 103.5 212.774 103.832 212.221 104.262L211.352 103.168C211.729 102.849 212.139 102.566 212.582 102.318C213.031 102.071 213.51 101.876 214.018 101.732C214.532 101.589 215.079 101.518 215.658 101.518C216.537 101.518 217.296 101.671 217.934 101.977C218.572 102.283 219.063 102.719 219.408 103.285C219.76 103.852 219.936 104.525 219.936 105.307C219.936 106.062 219.786 106.765 219.486 107.416C219.187 108.061 218.767 108.702 218.227 109.34C217.686 109.971 217.055 110.642 216.332 111.352L213.227 114.447V114.516H220.521V116ZM231.439 105.053C231.439 105.691 231.316 106.244 231.068 106.713C230.821 107.182 230.476 107.566 230.033 107.865C229.59 108.158 229.07 108.363 228.471 108.48V108.559C229.604 108.702 230.453 109.066 231.02 109.652C231.592 110.238 231.879 111.007 231.879 111.957C231.879 112.784 231.684 113.516 231.293 114.154C230.909 114.792 230.316 115.294 229.516 115.658C228.721 116.016 227.702 116.195 226.459 116.195C225.704 116.195 225.004 116.133 224.359 116.01C223.721 115.893 223.109 115.694 222.523 115.414V113.891C223.116 114.184 223.76 114.415 224.457 114.584C225.154 114.747 225.827 114.828 226.479 114.828C227.781 114.828 228.721 114.571 229.301 114.057C229.88 113.536 230.17 112.826 230.17 111.928C230.17 111.309 230.007 110.811 229.682 110.434C229.363 110.049 228.9 109.77 228.295 109.594C227.696 109.411 226.973 109.32 226.127 109.32H224.701V107.934H226.137C226.911 107.934 227.569 107.82 228.109 107.592C228.65 107.364 229.06 107.045 229.34 106.635C229.626 106.218 229.77 105.727 229.77 105.16C229.77 104.438 229.529 103.881 229.047 103.49C228.565 103.093 227.911 102.895 227.084 102.895C226.576 102.895 226.114 102.947 225.697 103.051C225.281 103.155 224.89 103.298 224.525 103.48C224.161 103.663 223.796 103.874 223.432 104.115L222.611 103.002C223.132 102.598 223.767 102.25 224.516 101.957C225.264 101.664 226.114 101.518 227.064 101.518C228.523 101.518 229.617 101.85 230.346 102.514C231.075 103.178 231.439 104.024 231.439 105.053Z" fill="black"/>
</svg>
