<svg width="360" height="640" viewBox="0 0 360 640" fill="none" xmlns="http://www.w3.org/2000/svg">
<rect width="360" height="640" fill="white"/>
<line x1="45" y1="83.5" x2="104" y2="83.5" stroke="black"/>
<line x1="45" y1="83.5" x2="104" y2="83.5" stroke="black"/>
<line x1="255" y1="83.5" x2="314" y2="83.5" stroke="black"/>
<line x1="255" y1="83.5" x2="314" y2="83.5" stroke="black"/>
<path d="M136.021 92H134.439V81.8828C134.439 81.4987 134.439 81.1699 134.439 80.8965C134.446 80.6165 134.452 80.3626 134.459 80.1348C134.472 79.9004 134.488 79.6628 134.508 79.4219C134.306 79.6302 134.117 79.8092 133.941 79.959C133.766 80.1022 133.548 80.2812 133.287 80.4961L131.656 81.8047L130.807 80.7012L134.674 77.7227H136.021V92ZM150.807 83.8066C150.807 84.6725 150.745 85.5156 150.621 86.3359C150.504 87.1562 150.299 87.9212 150.006 88.6309C149.719 89.3405 149.329 89.9622 148.834 90.4961C148.339 91.0299 147.717 91.4499 146.969 91.7559C146.227 92.0553 145.338 92.2051 144.303 92.2051C144.023 92.2051 143.704 92.1855 143.346 92.1465C142.988 92.1139 142.695 92.0651 142.467 92V90.5938C142.708 90.6784 142.991 90.7467 143.316 90.7988C143.642 90.8444 143.961 90.8672 144.273 90.8672C145.491 90.8672 146.448 90.6068 147.145 90.0859C147.841 89.5586 148.342 88.8457 148.648 87.9473C148.954 87.0423 149.127 86.0267 149.166 84.9004H149.049C148.854 85.2129 148.596 85.5026 148.277 85.7695C147.965 86.0299 147.584 86.2415 147.135 86.4043C146.686 86.5605 146.161 86.6387 145.562 86.6387C144.736 86.6387 144.013 86.4694 143.395 86.1309C142.783 85.7923 142.304 85.3008 141.959 84.6562C141.62 84.0117 141.451 83.2337 141.451 82.3223C141.451 81.3392 141.637 80.4896 142.008 79.7734C142.385 79.0508 142.913 78.4941 143.59 78.1035C144.267 77.7129 145.064 77.5176 145.982 77.5176C146.686 77.5176 147.33 77.651 147.916 77.918C148.502 78.1849 149.01 78.5853 149.439 79.1191C149.876 79.6465 150.211 80.3008 150.445 81.082C150.686 81.8633 150.807 82.7715 150.807 83.8066ZM145.982 78.8945C145.117 78.8945 144.413 79.1777 143.873 79.7441C143.339 80.3105 143.072 81.1634 143.072 82.3027C143.072 83.2467 143.303 83.9922 143.766 84.5391C144.228 85.0859 144.941 85.3594 145.904 85.3594C146.568 85.3594 147.141 85.2259 147.623 84.959C148.111 84.6921 148.486 84.3535 148.746 83.9434C149.013 83.5332 149.146 83.1133 149.146 82.6836C149.146 82.2539 149.081 81.8177 148.951 81.375C148.827 80.9323 148.635 80.5254 148.375 80.1543C148.115 79.7767 147.786 79.474 147.389 79.2461C146.992 79.0117 146.523 78.8945 145.982 78.8945ZM153.355 90.9844C153.355 90.5286 153.466 90.2064 153.688 90.0176C153.909 89.8223 154.179 89.7246 154.498 89.7246C154.83 89.7246 155.11 89.8223 155.338 90.0176C155.566 90.2064 155.68 90.5286 155.68 90.9844C155.68 91.4336 155.566 91.7624 155.338 91.9707C155.11 92.1725 154.83 92.2734 154.498 92.2734C154.179 92.2734 153.909 92.1725 153.688 91.9707C153.466 91.7624 153.355 91.4336 153.355 90.9844ZM167.564 84.8418C167.564 86.0007 167.477 87.0358 167.301 87.9473C167.125 88.8587 166.848 89.6302 166.471 90.2617C166.093 90.8932 165.605 91.375 165.006 91.707C164.407 92.0326 163.688 92.1953 162.848 92.1953C161.786 92.1953 160.908 91.9056 160.211 91.3262C159.521 90.7467 159.003 89.9102 158.658 88.8164C158.32 87.7161 158.15 86.3913 158.15 84.8418C158.15 83.3184 158.303 82.0098 158.609 80.916C158.922 79.8158 159.423 78.9727 160.113 78.3867C160.803 77.7943 161.715 77.498 162.848 77.498C163.922 77.498 164.807 77.791 165.504 78.377C166.201 78.9564 166.718 79.7962 167.057 80.8965C167.395 81.9902 167.564 83.3053 167.564 84.8418ZM159.781 84.8418C159.781 86.1699 159.882 87.2767 160.084 88.1621C160.286 89.0475 160.611 89.7116 161.061 90.1543C161.516 90.5905 162.112 90.8086 162.848 90.8086C163.583 90.8086 164.176 90.5905 164.625 90.1543C165.081 89.7181 165.41 89.0573 165.611 88.1719C165.82 87.2865 165.924 86.1764 165.924 84.8418C165.924 83.5332 165.823 82.4395 165.621 81.5605C165.419 80.6751 165.094 80.0111 164.645 79.5684C164.195 79.1191 163.596 78.8945 162.848 78.8945C162.099 78.8945 161.5 79.1191 161.051 79.5684C160.602 80.0111 160.276 80.6751 160.074 81.5605C159.879 82.4395 159.781 83.5332 159.781 84.8418ZM174.293 77.5176C175.12 77.5176 175.852 77.6478 176.49 77.9082C177.128 78.1686 177.626 78.5527 177.984 79.0605C178.349 79.5618 178.531 80.1803 178.531 80.916C178.531 81.4954 178.404 82.0033 178.15 82.4395C177.903 82.8691 177.568 83.2467 177.145 83.5723C176.721 83.8913 176.253 84.1777 175.738 84.4316C176.35 84.7116 176.9 85.0273 177.389 85.3789C177.883 85.7305 178.274 86.1439 178.561 86.6191C178.847 87.0944 178.99 87.6576 178.99 88.3086C178.99 89.1094 178.795 89.8027 178.404 90.3887C178.02 90.9681 177.48 91.4141 176.783 91.7266C176.087 92.0391 175.27 92.1953 174.332 92.1953C173.323 92.1953 172.464 92.0456 171.754 91.7461C171.051 91.4401 170.514 91.0039 170.143 90.4375C169.778 89.8646 169.596 89.1777 169.596 88.377C169.596 87.7194 169.736 87.1497 170.016 86.668C170.296 86.1797 170.667 85.7598 171.129 85.4082C171.591 85.0566 172.096 84.7604 172.643 84.5195C172.167 84.2591 171.731 83.9629 171.334 83.6309C170.943 83.2988 170.631 82.9115 170.396 82.4688C170.169 82.0195 170.055 81.4987 170.055 80.9062C170.055 80.1836 170.237 79.5716 170.602 79.0703C170.973 78.5625 171.477 78.1784 172.115 77.918C172.76 77.651 173.486 77.5176 174.293 77.5176ZM171.188 88.3867C171.188 89.1159 171.445 89.7181 171.959 90.1934C172.473 90.6621 173.251 90.8965 174.293 90.8965C175.283 90.8965 176.048 90.6621 176.588 90.1934C177.128 89.7181 177.398 89.0964 177.398 88.3281C177.398 87.8529 177.275 87.4362 177.027 87.0781C176.78 86.7135 176.428 86.388 175.973 86.1016C175.517 85.8151 174.98 85.5547 174.361 85.3203L174.01 85.1934C173.411 85.4408 172.9 85.7174 172.477 86.0234C172.06 86.3229 171.741 86.6647 171.52 87.0488C171.298 87.4329 171.188 87.8789 171.188 88.3867ZM174.273 78.8457C173.505 78.8457 172.877 79.0312 172.389 79.4023C171.9 79.7669 171.656 80.2943 171.656 80.9844C171.656 81.4792 171.773 81.8991 172.008 82.2441C172.249 82.5827 172.574 82.8757 172.984 83.123C173.395 83.3639 173.854 83.5885 174.361 83.7969C174.856 83.5885 175.296 83.3607 175.68 83.1133C176.064 82.8594 176.367 82.5599 176.588 82.2148C176.809 81.8698 176.92 81.4564 176.92 80.9746C176.92 80.2845 176.676 79.7572 176.188 79.3926C175.706 79.028 175.068 78.8457 174.273 78.8457ZM181.5 90.9844C181.5 90.5286 181.611 90.2064 181.832 90.0176C182.053 89.8223 182.324 89.7246 182.643 89.7246C182.975 89.7246 183.255 89.8223 183.482 90.0176C183.71 90.2064 183.824 90.5286 183.824 90.9844C183.824 91.4336 183.71 91.7624 183.482 91.9707C183.255 92.1725 182.975 92.2734 182.643 92.2734C182.324 92.2734 182.053 92.1725 181.832 91.9707C181.611 91.7624 181.5 91.4336 181.5 90.9844ZM195.631 92H186.275V90.6426L190.094 86.7656C190.803 86.0495 191.399 85.4115 191.881 84.8516C192.369 84.2917 192.74 83.7415 192.994 83.2012C193.248 82.6543 193.375 82.0553 193.375 81.4043C193.375 80.597 193.134 79.9818 192.652 79.5586C192.177 79.1289 191.549 78.9141 190.768 78.9141C190.084 78.9141 189.479 79.0312 188.951 79.2656C188.424 79.5 187.883 79.832 187.33 80.2617L186.461 79.168C186.839 78.849 187.249 78.5658 187.691 78.3184C188.141 78.071 188.619 77.8757 189.127 77.7324C189.641 77.5892 190.188 77.5176 190.768 77.5176C191.646 77.5176 192.405 77.6706 193.043 77.9766C193.681 78.2826 194.173 78.7188 194.518 79.2852C194.869 79.8516 195.045 80.5254 195.045 81.3066C195.045 82.0618 194.895 82.765 194.596 83.416C194.296 84.0605 193.876 84.7018 193.336 85.3398C192.796 85.9714 192.164 86.6419 191.441 87.3516L188.336 90.4473V90.5156H195.631V92ZM207.154 84.8418C207.154 86.0007 207.066 87.0358 206.891 87.9473C206.715 88.8587 206.438 89.6302 206.061 90.2617C205.683 90.8932 205.195 91.375 204.596 91.707C203.997 92.0326 203.277 92.1953 202.438 92.1953C201.376 92.1953 200.497 91.9056 199.801 91.3262C199.111 90.7467 198.593 89.9102 198.248 88.8164C197.91 87.7161 197.74 86.3913 197.74 84.8418C197.74 83.3184 197.893 82.0098 198.199 80.916C198.512 79.8158 199.013 78.9727 199.703 78.3867C200.393 77.7943 201.305 77.498 202.438 77.498C203.512 77.498 204.397 77.791 205.094 78.377C205.79 78.9564 206.308 79.7962 206.646 80.8965C206.985 81.9902 207.154 83.3053 207.154 84.8418ZM199.371 84.8418C199.371 86.1699 199.472 87.2767 199.674 88.1621C199.876 89.0475 200.201 89.7116 200.65 90.1543C201.106 90.5905 201.702 90.8086 202.438 90.8086C203.173 90.8086 203.766 90.5905 204.215 90.1543C204.671 89.7181 204.999 89.0573 205.201 88.1719C205.41 87.2865 205.514 86.1764 205.514 84.8418C205.514 83.5332 205.413 82.4395 205.211 81.5605C205.009 80.6751 204.684 80.0111 204.234 79.5684C203.785 79.1191 203.186 78.8945 202.438 78.8945C201.689 78.8945 201.09 79.1191 200.641 79.5684C200.191 80.0111 199.866 80.6751 199.664 81.5605C199.469 82.4395 199.371 83.5332 199.371 84.8418ZM218.521 92H209.166V90.6426L212.984 86.7656C213.694 86.0495 214.29 85.4115 214.771 84.8516C215.26 84.2917 215.631 83.7415 215.885 83.2012C216.139 82.6543 216.266 82.0553 216.266 81.4043C216.266 80.597 216.025 79.9818 215.543 79.5586C215.068 79.1289 214.439 78.9141 213.658 78.9141C212.975 78.9141 212.369 79.0312 211.842 79.2656C211.314 79.5 210.774 79.832 210.221 80.2617L209.352 79.168C209.729 78.849 210.139 78.5658 210.582 78.3184C211.031 78.071 211.51 77.8757 212.018 77.7324C212.532 77.5892 213.079 77.5176 213.658 77.5176C214.537 77.5176 215.296 77.6706 215.934 77.9766C216.572 78.2826 217.063 78.7188 217.408 79.2852C217.76 79.8516 217.936 80.5254 217.936 81.3066C217.936 82.0618 217.786 82.765 217.486 83.416C217.187 84.0605 216.767 84.7018 216.227 85.3398C215.686 85.9714 215.055 86.6419 214.332 87.3516L211.227 90.4473V90.5156H218.521V92ZM229.439 81.0527C229.439 81.6908 229.316 82.2441 229.068 82.7129C228.821 83.1816 228.476 83.5658 228.033 83.8652C227.59 84.1582 227.07 84.3633 226.471 84.4805V84.5586C227.604 84.7018 228.453 85.0664 229.02 85.6523C229.592 86.2383 229.879 87.0065 229.879 87.957C229.879 88.7839 229.684 89.5163 229.293 90.1543C228.909 90.7923 228.316 91.2936 227.516 91.6582C226.721 92.0163 225.702 92.1953 224.459 92.1953C223.704 92.1953 223.004 92.1335 222.359 92.0098C221.721 91.8926 221.109 91.694 220.523 91.4141V89.8906C221.116 90.1836 221.76 90.4147 222.457 90.584C223.154 90.7467 223.827 90.8281 224.479 90.8281C225.781 90.8281 226.721 90.571 227.301 90.0566C227.88 89.5358 228.17 88.8262 228.17 87.9277C228.17 87.3092 228.007 86.8112 227.682 86.4336C227.363 86.0495 226.9 85.7695 226.295 85.5938C225.696 85.4115 224.973 85.3203 224.127 85.3203H222.701V83.9336H224.137C224.911 83.9336 225.569 83.8197 226.109 83.5918C226.65 83.3639 227.06 83.0449 227.34 82.6348C227.626 82.2181 227.77 81.7266 227.77 81.1602C227.77 80.4375 227.529 79.8809 227.047 79.4902C226.565 79.0931 225.911 78.8945 225.084 78.8945C224.576 78.8945 224.114 78.9466 223.697 79.0508C223.281 79.1549 222.89 79.2982 222.525 79.4805C222.161 79.6628 221.796 79.8743 221.432 80.1152L220.611 79.002C221.132 78.5983 221.767 78.25 222.516 77.957C223.264 77.6641 224.114 77.5176 225.064 77.5176C226.523 77.5176 227.617 77.8496 228.346 78.5137C229.075 79.1777 229.439 80.0241 229.439 81.0527Z" fill="black"/>
</svg>
