<svg width="393" height="149" viewBox="0 0 393 149" fill="none" xmlns="http://www.w3.org/2000/svg">
<path d="M1 51.7835C3.32804 47.7 6.50635 36.6471 12.5219 36.2203C34.3845 34.669 47.4981 59.7029 55.9664 74.5794C62.7417 86.4819 67.6874 99.0908 73.5543 111.389C77.4856 119.629 81.6099 128.587 87.7533 135.605C101.326 151.11 128.185 150.499 145.77 142.354C150.023 140.384 151.545 139.441 154.818 135.864C163.413 126.467 170.179 115.109 176.879 104.479C186.735 88.8409 193.901 72.1076 203.04 56.1425C216.914 31.9075 240.284 11.3234 268.681 4.06056C289.245 -1.19859 309.765 1.2194 330.459 4.60947C351.104 7.99143 374.787 12.3825 392 24.4671" stroke="#22443F" stroke-linecap="round"/>
</svg>
