<svg width="360" height="640" viewBox="0 0 360 640" fill="none" xmlns="http://www.w3.org/2000/svg">
<g clip-path="url(#clip0_56_2)">
<rect width="360" height="640" fill="#22443F"/>
<path d="M317.063 319.826C321.224 313.932 332.431 310.97 339.205 310.97C346.089 310.97 347.084 316.544 351.936 320.318C355.642 323.201 358.086 328.683 363.561 328.683C366.697 328.683 369.834 328.683 372.971 328.683C376.857 328.683 379.659 326.469 383.488 326.469" stroke="#767B35" stroke-width="3" stroke-linecap="round"/>
<path d="M-25.6317 628.89C-21.4424 626.471 -17.227 624.292 -13.1557 621.603C-9.17656 618.882 -5.49615 615.657 -2.02941 612.301C1.34181 609.085 4.62097 605.838 7.56836 602.189C10.6113 598.401 13.3815 594.346 16.2733 590.391C18.974 586.716 21.6157 582.905 23.8596 578.901C25.942 575.243 27.6891 571.356 29.2522 567.406C30.7857 563.389 32.043 559.277 32.9321 555.039C33.9167 550.661 34.3785 546.161 34.7153 541.734C34.9218 539.16 35.0363 536.554 35.0883 533.984C35.1142 531.175 34.7684 528.412 34.4226 525.649C34.0994 523.295 33.8388 520.906 33.5781 518.517C33.3957 516.845 33.2896 514.451 32.0771 513.288C32.2317 513.284 32.3863 513.279 32.5409 513.274C30.2361 515.706 27.8393 518.105 25.6856 520.703C23.4034 523.544 21.7657 526.606 20.3676 530.038C17.601 536.968 15.5084 544.187 13.817 551.428C12.0926 558.773 11.1081 566.198 9.6599 573.637C8.96879 577.253 8.24814 580.802 7.15926 584.224C6.09991 587.714 4.76439 591.109 3.30727 594.406C1.62611 598.085 -0.176645 601.665 -1.9794 605.246C-3.00756 607.194 -4.00619 609.21 -5.03435 611.158C-5.83848 612.722 -6.9813 614.229 -7.2956 616.019C-7.47972 615.956 -7.69337 615.825 -7.87749 615.762C-5.42505 613.669 -3.06119 611.373 -0.910991 608.947C1.30173 606.484 3.27127 603.823 5.39193 601.329C7.5456 598.731 9.63673 596.17 11.3336 593.243C13.0269 590.488 14.5692 587.565 15.9568 584.648C21.5005 573.321 25.3021 561.052 27.5612 548.658C28.1898 545.078 28.7263 541.466 29.1378 537.927C29.3305 536.038 29.5857 534.113 29.5613 532.265C29.5369 530.416 29.2328 528.645 28.9913 526.837C29.238 526.864 29.4551 526.823 29.6392 526.886C28.8299 530.232 28.2673 533.604 27.6422 537.013C27.0536 540.146 26.1557 543.289 25.475 546.391C24.018 552.735 22.469 559.047 20.4597 565.202C19.4698 568.313 18.2958 571.361 17.2139 574.441C16.1649 577.417 15.1455 580.46 14.0045 583.405C12.8009 586.385 11.4758 589.267 9.96654 592.085C8.39476 594.939 6.7014 597.695 5.22168 600.581C4.4801 602.11 3.67597 603.674 2.81279 605.104C1.88708 606.569 0.77725 607.972 -0.421169 609.172C-1.59006 610.439 -2.81802 611.571 -4.0755 612.636C-4.73724 613.272 -5.33645 613.872 -5.87659 614.607C-6.35422 615.306 -6.73977 616.036 -7.30945 616.704C-7.30599 616.533 -7.273 616.429 -7.207 616.222C-6.55385 617.538 -5.1695 617.839 -4.00226 618.181C-2.65091 618.586 -1.29956 618.991 0.117787 619.189C2.98201 619.652 5.87577 620.182 8.64447 620.785C14.458 622.085 20.2022 623.764 25.7813 625.961C31.6071 628.185 37.4659 630.306 43.2291 632.566C45.9579 633.615 48.6502 634.939 51.478 635.677C54.1512 636.42 56.8642 636.716 59.6069 637.08C61.0868 637.241 62.5666 637.403 64.1125 637.357C65.813 637.307 67.6124 636.945 69.2868 636.656C71.0237 636.33 72.7901 636.072 74.4941 635.851C76.1684 635.561 77.8724 635.34 79.4321 634.608C79.3661 634.816 79.3626 634.987 79.2966 635.195C78.3343 633.888 77.4675 632.441 76.5052 631.134C75.5133 629.76 74.3339 628.493 73.0589 627.367C70.6341 625.042 67.9261 622.965 65.2806 620.852C60.4761 617.022 54.9994 614.342 49.3247 612.285C43.6796 610.295 37.8695 608.824 31.917 608.281C25.8099 607.743 19.5934 608.03 13.4812 609.273C10.2541 609.951 7.14499 610.899 4.00294 611.951C1.42016 612.85 -2.02761 613.739 -3.56639 616.49C-3.56292 616.319 -3.65152 616.116 -3.64805 615.945C-2.88898 616.607 -1.77387 616.471 -0.875882 616.376C0.268757 616.308 1.38039 616.344 2.49203 616.379C5.2086 616.504 7.85917 616.836 10.6018 617.2C15.995 617.896 21.3813 618.935 26.8006 619.87C37.7312 621.772 48.5263 624.259 59.1895 627.162C60.8796 627.625 62.5662 628.26 64.2232 628.827C65.6962 629.332 67.1657 630.007 68.7046 630.304C68.7967 630.335 69.1979 630.358 69.1979 630.358C69.2274 630.425 69.0659 630.773 69.0659 630.773C69.0034 630.809 68.9443 630.673 68.8522 630.642C68.3329 630.349 67.8135 630.056 67.2942 629.764C65.8872 629.052 64.5098 628.408 63.0699 627.8C59.1512 625.999 54.9652 625.198 50.8486 624.019C45.841 622.593 40.7378 621.306 35.6016 620.123C30.2483 618.98 24.8621 617.941 19.4723 617.074C14.3917 616.197 9.28511 615.082 4.13162 614.755C2.83586 614.657 1.59916 614.693 0.332934 614.662C-0.193354 614.712 -0.778703 614.627 -1.24593 614.812C-1.30846 614.848 -1.77568 615.033 -1.80868 615.137C-1.80868 615.137 -1.46997 615.195 -1.56203 615.164C-1.28585 615.258 -0.822091 615.245 -0.542447 615.168C1.224 614.91 2.91571 613.764 4.47891 612.862C6.88449 611.558 8.9357 609.442 11.013 607.566C15.039 604.056 18.4275 599.984 21.5468 595.474C24.9197 590.649 28.2301 585.859 31.5734 580.966C38.0065 571.496 43.9567 561.457 47.1817 550.199C48.7759 544.707 49.5381 539.103 49.9616 533.44C50.3591 527.539 50.6349 521.538 50.322 515.623C50.009 509.709 49.2688 503.533 47.0904 498.187C46.0012 495.514 44.4118 493.13 43.0395 490.706C42.4419 489.696 41.8149 488.619 40.9967 487.821C40.3922 487.154 38.5979 485.735 37.6531 486.619C37.2119 487.043 37.3196 487.828 37.4968 488.233C37.7035 488.707 38.1308 488.968 38.4991 489.094C39.3571 489.445 40.4392 489.413 41.3442 488.975C41.2782 489.183 41.2452 489.286 41.1792 489.494C40.2672 487.227 38.6049 485.393 36.524 484.393C35.5443 483.942 34.4066 483.668 33.3245 483.7C32.2719 483.8 30.6861 484.292 30.106 485.473C29.3315 487.106 31.3533 487.97 32.3989 488.213C33.7537 488.447 35.0825 488.442 36.3748 488.712C37.8807 489.112 39.3901 489.341 40.8995 489.571C42.2248 489.737 43.3591 490.182 44.1077 491.359C44.7678 492.332 45.8118 494.185 47.1318 493.084C47.9812 492.34 48.4136 490.82 48.3128 489.693C48.2676 488.873 48.0348 488.16 47.281 488.765C46.6522 489.297 46.1416 490.1 45.7856 490.898C45.4956 491.489 44.8912 493.869 46.1383 493.319C46.7306 493.062 47.2082 492.363 47.7414 491.97C48.2747 491.578 48.8999 491.217 49.5217 491.027C50.6438 490.549 51.8249 490.205 52.7993 489.389C53.5861 488.681 54.3138 487.837 54.8279 486.863C55.7866 485.294 56.7695 482.525 55.1593 481.169C54.1866 480.376 52.7067 480.215 51.5552 480.625C50.3411 481.072 49.4518 482.263 48.7797 483.413C48.045 484.599 47.524 485.916 46.9405 487.268C46.3899 488.517 45.7178 489.667 45.4139 490.943C44.8322 493.734 46.1715 496.263 47.2381 498.525C48.2751 500.72 49.1368 503.948 52.0253 503.211C52.7392 503.053 53.2724 502.661 53.1056 501.741C52.9944 501.128 52.6036 500.592 52.1797 500.159C51.3321 499.294 50.1475 499.809 49.5084 500.855C48.9022 501.797 48.8085 503.375 50.0087 503.614C51.0544 503.857 52.2059 503.446 53.2585 503.346C54.4657 503.242 55.6954 503.548 56.8627 503.89C58.3686 504.29 59.878 504.52 61.4604 504.199C64.3454 503.634 66.6241 500.964 67.0286 497.767C67.2873 495.671 66.747 493.358 65.1038 492.106C63.0958 490.556 60.3915 491.355 58.3541 492.785C55.7836 494.608 54.1197 497.431 51.7298 499.488C50.5349 500.516 49.2444 501.685 49.3609 503.564C49.413 504.042 48.6991 504.2 48.647 503.723C48.5305 501.843 49.6108 500.372 50.9308 499.272C52.4089 497.995 53.7063 496.484 55.0037 494.973C57.2164 492.511 60.2646 489.989 63.4971 490.578C65.8055 491.023 67.3984 493.236 67.7181 495.761C68.057 498.867 66.5964 502.334 64.0293 503.986C62.4956 504.956 60.6962 505.317 59.0322 505.092C57.2136 504.872 55.4679 504.102 53.5834 504.09C52.3467 504.127 51.0371 504.713 49.7778 504.34C48.7026 504.029 48.2006 502.88 48.3794 501.676C48.5878 500.54 49.444 499.453 50.441 499.047C51.6551 498.6 52.5983 499.325 53.2254 500.402C53.8229 501.412 54.1009 502.944 52.9129 503.63C51.7874 504.28 50.2745 504.222 49.2393 503.465C48.0824 502.609 47.5873 501.117 46.9967 499.765C46.347 498.278 45.4802 496.831 45.0181 495.235C44.523 493.743 44.3371 492.242 44.6774 490.691C45.0508 489.037 46.0095 487.467 46.659 485.907C47.8886 483.165 49.5038 479.693 52.5955 479.602C53.8322 479.565 55.2756 480.002 56.0868 481.142C56.7174 482.048 56.7557 483.211 56.4848 484.383C55.9725 486.795 54.2201 489.415 52.2487 490.638C50.59 491.68 48.794 491.87 47.3125 493.318C46.6178 494.058 45.3047 494.816 44.8061 493.495C44.1634 491.665 45.7351 488.811 47.2358 487.944C47.9236 487.547 48.5975 487.836 48.8599 488.615C49.2368 489.837 49.0215 491.316 48.4744 492.393C47.8944 493.575 46.887 494.495 45.6902 494.085C45.0458 493.865 44.5004 493.333 44.08 492.729C43.4199 491.756 42.9735 490.913 41.8688 490.535C41.0403 490.251 40.1128 490.279 39.1887 490.135C38.2646 489.991 37.2815 489.712 36.3279 489.501C35.4369 489.253 34.5424 489.177 33.6183 489.033C32.8158 488.988 31.9213 488.912 31.1553 488.593C30.0211 488.147 28.9302 487.083 29.3001 485.6C29.637 484.22 31.0421 483.494 32.2232 483.151C34.8651 482.387 37.6199 483.675 39.4959 485.64C40.4652 486.604 41.3059 487.812 41.8045 489.133C41.8931 489.336 41.8271 489.543 41.6395 489.651C40.2343 490.378 37.7939 490.348 36.9601 488.797C36.5728 488.089 36.5015 487.03 36.9791 486.331C37.5523 485.492 38.4763 485.636 39.2128 485.888C41.4222 486.644 42.7059 488.866 43.901 490.885C45.454 493.545 47.132 496.131 48.2143 499.147C50.2607 504.907 50.9314 511.462 51.1454 517.688C51.3594 523.914 50.9845 530.225 50.5176 536.506C49.5907 548.723 45.0631 560.226 39.0434 570.643C35.8113 576.149 32.2439 581.426 28.647 586.634C25.1456 591.703 21.8578 596.903 17.9326 601.539C14.7021 605.436 10.9887 608.765 7.18673 611.891C6.43293 612.496 5.74167 613.064 4.89927 613.466C3.27355 614.404 1.42724 615.555 -0.401725 615.848C-0.990545 615.934 -2.1977 616.039 -2.3975 615.223C-2.56429 614.303 -1.29113 613.992 -0.764839 613.942C1.83707 613.625 4.55017 613.921 7.10868 614.222C9.85132 614.586 12.5905 615.121 15.3001 615.588C18.1939 616.119 21.1206 616.546 23.9849 617.009C29.5882 618.007 35.1586 619.108 40.6926 620.485C46.0129 621.731 51.2342 623.289 56.4589 624.675C58.6718 625.26 60.8222 625.881 62.8735 626.813C64.343 627.488 65.875 628.128 67.3115 628.907C67.9229 629.231 68.5048 629.488 69.0832 629.916C69.3264 630.114 69.7242 630.308 69.6842 630.754C69.5714 631.751 67.5496 630.886 67.1188 630.796C65.2776 630.166 63.4069 629.468 61.5657 628.838C59.3268 628.014 56.9888 627.501 54.6839 626.885C48.8443 625.346 43.0011 623.978 37.0625 622.75C31.1239 621.522 25.1818 620.466 19.2692 619.477C13.4487 618.52 7.59867 617.495 1.70177 617.259C0.590136 617.223 -0.491971 617.255 -1.57408 617.287C-2.43907 617.279 -3.39613 617.239 -4.09613 616.711C-4.21773 616.612 -4.30632 616.409 -4.1778 616.166C-2.80054 613.762 -0.151765 612.657 2.08884 611.871C4.79666 610.9 7.44196 609.966 10.2054 609.302C16.354 607.784 22.7025 607.082 28.9381 607.377C35.0816 607.64 41.1419 608.966 47.0371 610.812C52.8698 612.694 58.5671 615.161 63.6547 618.743C66.7014 620.878 69.6491 623.325 72.4718 625.843C73.8683 627.069 75.2319 628.398 76.4079 629.836C77.6134 631.341 78.5983 633.058 79.7708 634.667C79.9219 634.834 79.915 635.176 79.6354 635.253C76.8285 636.535 73.6743 636.663 70.6972 637.196C67.7827 637.693 64.8351 638.294 61.8719 638.143C59.1258 637.95 56.2911 637.555 53.5519 637.02C50.7502 636.521 48.176 635.467 45.5098 634.382C39.5329 631.991 33.4275 629.843 27.388 627.489C21.5623 625.264 15.7 623.315 9.58073 621.853C6.16762 621.03 2.71804 620.481 -0.761068 619.866C-2.20794 619.6 -3.65136 619.164 -5.00271 618.759C-6.19948 618.349 -7.36325 617.836 -8.0494 616.623C-8.10846 616.488 -8.04246 616.281 -7.94694 616.141C-7.41026 615.577 -7.0247 614.846 -6.6096 614.184C-6.19452 613.521 -5.72035 612.993 -5.21667 612.533C-4.11377 611.473 -3.04387 610.517 -1.94097 609.457C0.297821 607.233 2.10931 604.748 3.58903 601.862C4.32716 600.505 4.97323 599.116 5.71136 597.758C6.48248 596.297 7.37519 594.935 8.17584 593.542C9.81015 590.651 11.2899 587.765 12.6185 584.713C13.8515 581.8 14.9005 578.824 15.9199 575.78C16.9393 572.737 18.0508 569.725 19.0998 566.749C21.2012 560.626 22.8718 554.412 24.2957 548.172C25.1084 544.655 26.0427 541.238 26.7634 537.689C27.4875 533.97 28.057 530.255 28.9652 526.598C29.0347 526.219 29.5905 526.237 29.6131 526.647C29.8286 528.216 30.1066 529.749 30.1674 531.322C30.2578 532.963 30.1311 534.645 29.9749 536.259C29.6294 539.59 29.1919 542.891 28.5997 546.196C27.577 552.458 26.153 558.698 24.2983 564.848C22.5061 570.962 20.2536 576.919 17.5408 582.718C14.762 588.724 11.615 594.604 7.55781 599.656C6.38546 601.094 5.18356 602.465 4.01121 603.904C2.83885 605.343 1.69602 606.849 0.431612 608.256C-2.06769 611.138 -4.81017 613.822 -7.64124 616.303C-7.86182 616.515 -8.23005 616.389 -8.22312 616.046C-7.97828 614.635 -7.33568 613.417 -6.63055 612.164C-5.70138 610.527 -4.89726 608.962 -4.06014 607.294C-2.32339 603.921 -0.524086 600.512 1.09108 597.039C2.67326 593.671 4.19637 590.167 5.4103 586.673C6.62424 583.178 7.53246 579.522 8.2861 575.87C9.79685 568.394 10.8143 560.865 12.4171 553.421C14.0495 546.045 16.0535 538.623 18.728 531.661C20.1955 527.851 21.7812 524.311 24.2249 521.123C26.5105 518.11 29.22 515.53 31.7784 512.783C31.9364 512.608 32.1205 512.671 32.2421 512.77C33.2409 513.802 33.4824 515.609 33.7309 517.074C34.0019 518.95 34.1479 520.897 34.386 522.876C34.7057 525.401 35.088 527.889 35.2531 530.418C35.4217 532.776 35.4028 535.242 35.2917 537.676C34.8944 546.625 33.6321 555.566 30.8014 564.142C27.9411 572.65 23.8579 580.51 18.7691 587.681C15.9068 591.703 12.923 595.627 10.0312 599.582C7.20193 603.501 3.97837 607.055 0.574146 610.375C-3.33375 614.155 -7.24166 617.935 -11.5699 621.111C-16.0858 624.395 -20.956 626.868 -25.7707 629.647C-25.7116 629.782 -26.0069 629.106 -25.6317 628.89Z" fill="#C7C1C3"/>
<path d="M596.389 -76.0762C601.023 -77.5177 605.485 -78.58 609.947 -79.6423C611.187 -79.9374 612.35 -80.5527 613.532 -79.9884C613.856 -79.7273 614.066 -79.9463 614.524 -80.2245C615.191 -80.7217 616.145 -81.1178 616.812 -81.615C617.232 -82.0532 617.728 -82.1712 618.052 -81.9101C619.234 -81.3458 620.874 -81.0596 622.495 -81.953C624.154 -82.6862 624.992 -81.3636 626.652 -82.0969C627.853 -82.5521 629.131 -82.6871 630.37 -82.9822C631.419 -81.8786 633.669 -83.4292 634.813 -83.025C635.347 -82.983 635.633 -82.8819 636.339 -83.2191C637.921 -84.2725 639.866 -84.9047 641.83 -84.3574C643.566 -84.7705 644.824 -83.8861 646.483 -84.6193C647.685 -85.0745 648.371 -84.3922 649.191 -84.2491C650.335 -83.8449 651.822 -84.199 652.738 -84.7552C654.988 -86.3058 657.009 -86.6179 659.431 -86.3487C660.537 -86.1045 662.024 -86.4586 663.378 -86.2735C664.198 -86.1304 664.77 -85.9283 665.723 -86.3245C667.383 -87.0577 668.813 -86.5524 670.338 -86.7465C671.368 -86.8225 672.416 -85.7189 673.103 -87.2356C673.103 -87.2356 673.313 -87.4547 673.599 -87.3536C674.133 -87.3116 674.457 -87.0505 675.029 -86.8484C676.917 -86.6212 678.843 -86.2339 681.283 -86.9842C682.523 -87.2793 683.934 -87.9535 685.002 -87.8695C686.07 -87.7854 687.385 -87.7603 688.453 -87.6763C688.987 -87.6342 689.559 -87.4321 690.055 -87.5502C691.256 -88.0053 692.362 -87.7612 693.43 -87.6771C694.021 -88.4945 694.803 -88.5114 695.661 -88.2083C697.072 -88.8825 698.121 -87.779 699.57 -88.2932C700.772 -88.7483 702.049 -88.8833 703.289 -89.1784C704.49 -89.6336 705.348 -89.3304 705.958 -88.9683C706.53 -88.7661 706.683 -88.1258 707.217 -88.0838C708.037 -87.9407 709.238 -88.3959 710.23 -88.6319C711.469 -88.927 712.709 -89.2221 713.948 -89.5172C714.94 -89.7533 715.474 -89.7113 716.332 -89.4081C717.19 -89.1049 718.296 -88.8608 719.783 -89.2149C720.279 -89.3329 721.061 -89.3499 721.347 -89.2488C722.777 -88.7436 724.13 -88.5584 725.79 -89.2917C727.487 -89.8649 728.745 -88.9805 730.442 -89.5537C731.892 -90.0679 733.417 -90.2619 734.904 -90.616C735.152 -90.675 735.476 -90.4139 735.515 -90.2538C735.667 -89.6135 736.201 -89.5715 737.193 -89.8076C738.718 -90.0016 740.549 -91.114 741.979 -90.6087C743.409 -90.1035 745.411 -91.5951 746.67 -90.7106C746.708 -90.5505 747.452 -90.7276 747.947 -90.8456C751.628 -91.891 751.628 -91.891 753.344 -91.2847C754.774 -90.7794 757.005 -91.3105 758.225 -90.5862C758.835 -90.224 759.789 -90.6201 760.532 -90.7972C761.524 -91.0333 762.764 -91.3284 763.755 -91.5644C764.785 -91.6404 765.471 -90.9581 766.634 -91.5733C767.779 -91.1691 768.56 -91.1861 769.361 -92.2225C769.571 -92.4416 770.391 -92.2985 771.173 -92.3155C771.707 -92.2735 772.031 -92.0123 772.451 -92.4505C773.08 -93.1078 774.033 -93.504 774.93 -93.0407C776.074 -92.6365 777.179 -92.3923 778.705 -92.5864C779.239 -92.5443 779.811 -92.3422 780.307 -92.4603C781.584 -92.5953 784.006 -92.3261 785.112 -92.0819C785.684 -91.8798 786.256 -91.6777 787.286 -91.7537C788.525 -92.0488 792.224 -91.9146 792.796 -91.7125C794.226 -91.2072 796.038 -91.3002 797.849 -91.3932C799.165 -91.3681 800.233 -91.284 800.671 -90.5427C801.186 -89.4812 801.568 -90.0794 802.483 -90.6356C803.15 -91.1329 803.932 -91.1498 804.752 -91.0067C805.572 -90.8636 806.468 -90.4004 807.46 -90.6365C808.737 -90.7715 809.939 -91.2267 810.873 -90.6033C813.238 -91.6737 815.106 -90.4271 817.509 -91.3374C819.168 -92.0707 820.293 -90.647 822.162 -91.5994C822.658 -91.7174 823.649 -91.9535 824.259 -91.5913C824.583 -91.3302 824.412 -90.951 824.526 -90.4708C824.717 -89.6704 824.717 -89.6704 825.842 -90.4457C826.299 -90.7239 826.509 -90.9429 827.005 -91.061C827.253 -91.12 827.501 -91.179 827.501 -91.179C828.378 -91.8953 829.007 -92.5526 830.228 -91.8282L833.45 -92.5955C833.603 -91.9552 834.003 -91.3739 832.84 -90.7586C832.592 -90.6996 832.63 -90.5395 832.668 -90.3795C832.954 -90.2784 833.488 -90.2364 833.736 -90.2954C834.232 -90.4134 834.651 -90.8516 835.109 -91.1297C836.73 -92.0231 837.76 -92.0991 838.866 -91.8549C840.01 -91.4507 840.944 -90.8274 840.105 -89.951C839.266 -89.0747 839.418 -88.4343 839.571 -87.7941C839.647 -87.4739 840.219 -87.2718 840.848 -87.9291C841.268 -88.3673 841.725 -88.6454 842.088 -88.2242C842.66 -88.0221 842.488 -87.6429 842.068 -87.2047C841.859 -86.9856 841.325 -87.0276 840.867 -86.7495C840.409 -86.4714 839.666 -86.2944 840.524 -85.9912C841.344 -85.8481 841.954 -85.4859 843.193 -85.781C844.643 -86.2952 845.253 -85.933 847.503 -85.2846C848.895 -84.9394 850.248 -84.7543 851.392 -84.3501C850.477 -83.7938 850.324 -82.2351 848.532 -83.1616C847.903 -82.5043 846.987 -81.9481 846.854 -81.4089C846.758 -80.7096 847.197 -79.9682 847.349 -79.3279C848.875 -79.522 848.932 -80.3813 849.599 -80.8785C850.267 -81.3757 850.648 -81.974 851.526 -82.6903C852.536 -81.7468 852.269 -80.6684 852.745 -79.7669C852.898 -79.1266 852.154 -78.9496 851.163 -78.7135C849.465 -78.1403 849.465 -78.1403 849.446 -77.1208C849.522 -76.8007 849.351 -76.4215 849.179 -76.0423C848.34 -75.166 847.215 -74.3907 847.405 -73.5903C847.481 -73.2701 846.738 -73.0931 846.662 -73.4132C846.261 -73.9945 845.899 -74.4157 844.831 -74.4998C844.545 -74.6009 844.297 -74.5418 843.763 -74.5839C843.039 -73.2273 841.99 -74.3308 840.998 -74.0947C840.255 -73.9177 839.797 -73.6396 839.625 -73.2604C839.454 -72.8812 839.778 -72.6201 839.892 -72.1399C840.006 -71.6597 839.549 -71.3816 838.977 -71.5837C838.081 -72.0469 836.917 -71.4317 836.097 -71.5748C834.991 -71.8189 835.03 -71.6588 834.362 -71.1616C833.695 -70.6644 833.695 -70.6644 834.591 -70.2012C835.239 -69.6789 835.639 -69.0976 836.745 -68.8535C837.813 -68.7694 838.461 -68.2472 839.319 -67.944C838.48 -67.0676 837.355 -66.2923 837.469 -65.8121C837.45 -64.7926 835.867 -63.7392 836.592 -62.8968C835.352 -62.6017 835.219 -62.0624 835.543 -61.8013C836.191 -61.2791 837.049 -60.9759 838.327 -61.1109C838.193 -60.5717 838.765 -60.3696 838.136 -59.7123C837.125 -58.4567 837.411 -58.3557 837.906 -56.2747C838.021 -55.7945 838.135 -55.3143 838.249 -54.834C838.325 -54.5139 837.906 -54.0757 837.124 -54.0587C835.885 -53.7636 835.999 -53.2834 836.113 -52.8032C836.151 -52.6431 835.694 -52.365 835.484 -52.1459C834.874 -52.5081 833.596 -52.3731 832.814 -52.3561C832.032 -52.3391 832.166 -52.8784 832.09 -53.1985C832.357 -54.277 830.793 -54.243 829.935 -54.5462C829.687 -54.4872 828.696 -54.2511 828.486 -54.032C827.819 -53.5348 827.399 -53.0966 826.751 -53.6189C826.427 -53.88 826.179 -53.821 825.759 -53.3828C825.168 -52.5655 824.138 -52.4895 823.147 -52.2534C822.899 -52.1944 822.365 -52.2364 822.079 -52.3375C822.079 -52.3375 822.289 -52.5566 822.498 -52.7757C822.956 -53.0538 823.91 -53.4499 823.91 -53.4499C823.757 -54.0902 824.1 -54.8485 822.995 -55.0927C822.175 -55.2358 822.06 -55.716 821.698 -56.1372C821.66 -56.2973 821.126 -56.3393 821.126 -56.3393C820.916 -56.1202 820.459 -55.8421 820.497 -55.682C820.649 -55.0417 820.763 -54.5615 820.916 -53.9212C820.992 -53.6011 820.573 -53.1629 819.829 -52.9858C819.085 -52.8088 818.055 -52.7328 817.636 -52.2946C816.835 -51.2582 815.805 -51.1822 814.661 -51.5864C813.841 -51.7295 813.708 -51.1902 813.498 -50.9711C812.411 -50.0358 812.735 -49.7746 813.917 -49.2103C814.775 -48.9072 815.767 -49.1432 816.834 -49.0592L816.701 -48.5199C815.461 -48.2248 814.756 -47.8877 814.946 -47.0873C814.984 -46.9272 814.527 -46.6491 814.317 -46.43C814.031 -46.5311 813.745 -46.6321 813.669 -46.9523C812.696 -47.7357 812.658 -47.8958 811.075 -46.8423C810.198 -46.126 809.168 -46.05 808.177 -45.814C807.433 -45.6369 806.861 -45.839 807.033 -46.2182C807.166 -46.7574 806.632 -46.7995 805.889 -46.6224C804.649 -46.3273 803.658 -46.0913 802.266 -46.4365C801.694 -46.6386 800.282 -45.9643 799.463 -46.1074C798.643 -46.2505 798.071 -46.4526 797.727 -45.6943C797.556 -45.3151 797.308 -45.2561 796.736 -45.4582C796.45 -45.5593 796.126 -45.8204 795.63 -45.7024C795.134 -45.5843 794.676 -45.3062 793.971 -44.9691C794.257 -44.868 794.543 -44.767 794.829 -44.6659C795.115 -44.5649 795.191 -44.2447 795.477 -44.1436C793.99 -43.7895 792.502 -43.4354 791.015 -43.0813C790.767 -43.0223 790.691 -43.3425 790.652 -43.5025C790.652 -43.5025 790.862 -43.7216 791.11 -43.7806C791.606 -43.8987 791.854 -43.9577 792.35 -44.0757C792.598 -44.1347 792.559 -44.2948 792.769 -44.5139C792.769 -44.5139 792.731 -44.674 792.483 -44.615C792.197 -44.716 791.701 -44.598 791.454 -44.539C790.252 -44.0838 789.146 -44.328 788.078 -44.412C787.869 -44.1929 787.945 -43.8728 787.735 -43.6537C787.64 -42.9544 786.724 -42.3982 786.4 -42.6593C784.97 -43.1646 783.273 -42.5914 781.747 -42.3973C780.222 -42.2033 778.792 -42.7086 777.133 -41.9753C776.637 -41.8573 776.561 -42.1774 776.98 -42.6156C777.152 -42.9948 777.286 -43.534 777.209 -43.8542C777.171 -44.0142 776.599 -44.2163 776.351 -44.1573C775.188 -43.5421 774.311 -42.8258 773.186 -42.0505C772.518 -41.5533 771.736 -41.5363 770.878 -41.8395C770.592 -41.9405 770.058 -41.9825 769.81 -41.9235C769.563 -41.8645 769.315 -41.8055 769.315 -41.8055C768.59 -40.4489 765.634 -40.7601 764.871 -39.5636C763.975 -37.8279 760.771 -38.0801 759.551 -36.6055C758.292 -37.4899 757.815 -36.1923 756.824 -35.9563C755.336 -35.6021 753.849 -35.248 752.362 -34.8939C751.122 -34.5988 749.883 -34.3037 748.643 -34.0087C746.698 -33.3764 744.848 -33.4435 743.666 -34.0078C742.808 -34.311 742.713 -33.6117 742.465 -33.5527C742.217 -33.4936 741.797 -33.0555 741.511 -33.1565C740.977 -33.1986 740.444 -33.2406 739.91 -33.2826C739.09 -33.4257 738.098 -33.1896 737.03 -33.2737C736.21 -33.4168 735.943 -32.3383 735.028 -31.7821C734.818 -31.563 734.608 -31.3439 734.151 -31.0658C732.892 -29.7513 732.644 -29.6922 730.68 -30.2396C730.146 -30.2816 729.822 -30.5427 729.288 -30.5848C728.239 -29.4893 727.228 -28.2338 724.921 -28.0227C724.425 -27.9047 724.044 -27.3064 723.586 -27.0283C723.586 -27.0283 722.804 -27.0114 722.766 -27.1714C722.576 -27.9718 722.004 -28.1739 720.802 -27.7188C720.306 -27.6007 719.563 -27.4237 719.105 -27.1455C718.437 -26.6483 718.8 -26.2271 719.658 -25.924C719.944 -25.8229 719.982 -25.6628 720.268 -25.5618C720.02 -25.5028 719.562 -25.2247 719.314 -25.1656C719.066 -25.1066 718.533 -25.1487 718.247 -25.2497C717.961 -25.3508 717.884 -25.6709 717.846 -25.831C717.865 -26.8505 716.798 -26.9345 715.692 -27.1787C715.406 -27.2797 714.414 -27.0437 713.956 -26.7656C712.869 -25.8302 712.03 -24.9538 710.371 -24.2205C709.17 -23.7654 709.208 -23.6053 708.636 -23.8074C707.492 -24.2116 706.386 -24.4558 704.689 -23.8826C703.239 -23.3684 701.428 -23.2754 700.417 -22.0199C700.207 -21.8008 699.673 -21.8428 699.139 -21.8848C698.319 -22.0279 697.747 -22.23 697.175 -22.4322C696.07 -22.6763 695.364 -22.3392 694.449 -21.783C693.571 -21.0667 693.323 -21.0076 692.465 -21.3108C691.607 -21.614 691.112 -21.4959 690.73 -20.8977C690.768 -20.7376 690.52 -20.6786 690.272 -20.6196C689.777 -20.5015 689.281 -20.3835 689.033 -20.3245C688.709 -20.5856 688.137 -20.7877 688.308 -21.1669C688.442 -21.7061 689.605 -22.3214 689.205 -22.9027C688.442 -23.9051 689.93 -24.2592 690.883 -24.6554C691.131 -24.7144 691.093 -24.8745 691.093 -24.8745C689.415 -25.3207 687.947 -25.9861 686.269 -26.4324C686.059 -26.2133 685.811 -26.1543 685.849 -25.9942C686.04 -25.1938 685.62 -24.7556 683.885 -24.3425C681.902 -23.8703 681.311 -23.053 681.406 -21.5533C680.414 -21.3172 679.423 -21.0812 678.431 -20.8451C677.935 -20.7271 677.611 -20.9882 678.031 -21.4264C678.488 -21.7045 678.336 -22.3448 677.878 -22.0667C676.429 -21.5525 675.704 -22.3949 674.465 -22.0998C674.427 -22.2599 674.427 -22.2599 674.389 -22.42C674.16 -23.3804 673.054 -23.6245 672.177 -22.9082C671.3 -22.192 670.842 -21.9138 669.946 -22.3771C669.946 -22.3771 669.24 -22.04 669.278 -21.8799C669.354 -21.5597 669.431 -21.2396 669.545 -20.7594C668.763 -20.7424 668.63 -20.2031 668.172 -19.925C667.962 -19.7059 667.218 -19.5289 667.39 -19.908C667.295 -21.4077 664.682 -20.2783 663.748 -20.9016C663.748 -20.9016 663.291 -20.6235 663.043 -20.5645C662.585 -20.2864 662.413 -19.9072 661.994 -19.469C662.528 -19.427 662.775 -19.486 663.061 -19.385C663.347 -19.2839 663.805 -19.562 664.091 -19.461C664.663 -19.2588 664.606 -18.3995 664.11 -18.2814C662.623 -17.9273 661.383 -17.6322 660.296 -16.6968C659.877 -16.2586 658.313 -16.2247 657.321 -15.9886L654.842 -15.3984C654.652 -16.1988 654.175 -17.1002 654.233 -17.9596C654.29 -18.819 653.222 -18.9031 652.402 -19.0462C651.296 -19.2903 650.591 -18.9532 649.961 -18.2959C649.332 -17.6386 648.55 -17.6217 647.806 -17.4446C647.063 -17.2675 646.853 -17.0485 646.719 -16.5092C646.548 -16.13 646.376 -15.7509 646.166 -15.5318C645.842 -15.7929 645.766 -16.1131 645.442 -16.3742C644.87 -16.5763 644.26 -16.9385 643.478 -16.9215C642.944 -16.9636 641.952 -16.7275 641.743 -16.5084C640.903 -15.632 640.369 -15.6741 639.473 -16.1373C639.264 -15.9182 638.768 -15.8002 638.596 -15.421C638.424 -15.0418 638.138 -15.1429 637.604 -15.1849C635.717 -15.4121 635.717 -15.4121 634.63 -14.4767C634 -13.8194 634 -13.8194 634.858 -13.5163C635.468 -13.1541 635.373 -12.4548 636.479 -12.2106C637.261 -12.2276 637.337 -11.9074 638.214 -12.6237C638.882 -13.1209 639.663 -13.1379 640.655 -13.374C641.361 -13.7111 642.219 -13.4079 642.009 -13.1889C641.36 -11.5121 644.354 -11.0408 644.449 -9.54111C644.487 -9.38103 645.517 -9.45703 646.051 -9.415C646.375 -9.15386 646.871 -9.2719 647.157 -9.17084C646.241 -8.61462 646.089 -7.05592 644.296 -7.9824C642.351 -7.35018 640.711 -7.63637 639.281 -8.14165C638.137 -8.54587 636.783 -8.73101 635.334 -8.21682C634.133 -7.76166 632.855 -7.62664 631.616 -7.33155C631.368 -7.27253 630.91 -6.99442 630.7 -6.77533C630.986 -6.67427 631.52 -6.63223 631.768 -6.69125C633.255 -7.04536 633.618 -6.62415 633.522 -5.92484C633.598 -5.60469 633.427 -5.22552 633.541 -4.7453C632.721 -4.88839 632.435 -4.98945 631.863 -5.19156C630.757 -5.43571 630.795 -5.27564 629.098 -4.70244C627.897 -4.24727 627.191 -3.91014 627.63 -3.16878C627.668 -3.00871 627.21 -2.7306 626.962 -2.67158C626.428 -2.71362 625.856 -2.91574 625.322 -2.95777C624.54 -2.94079 623.587 -2.54464 622.805 -2.52766C622.271 -2.5697 621.661 -2.93188 621.203 -2.65377C620.002 -2.19861 619.487 -3.26011 618.61 -2.54381C618.152 -2.2657 618.591 -1.52435 618.667 -1.2042C618.743 -0.884048 618.286 -0.605937 617.58 -0.268809C616.627 0.12734 616.074 -1.09424 614.987 -0.158849C614.148 0.717523 613.747 0.136238 613.213 0.0942014C612.432 0.111181 611.44 0.347258 610.696 0.524312C609.743 0.92046 609.228 2.05796 608.37 1.75479C606.73 1.4686 604.747 1.94075 603.526 1.21638C602.63 0.753135 602.42 0.972226 602.325 1.67154C602.02 2.58995 601.562 2.86806 600.494 2.78399C599.96 2.74195 599.312 2.21969 598.721 3.03705C598.549 3.41621 598.301 3.47523 597.767 3.43319C597.195 3.23108 596.661 3.18905 596.337 2.92791C594.907 2.42263 594.907 2.42263 593.725 4.05734C593.515 4.27643 593.343 4.65559 593.095 4.71461C591.36 5.12773 589.625 5.54087 588.137 5.89497C586.898 6.19007 586.288 5.82788 585.468 5.68478C584.648 5.54169 584.953 4.62328 583.885 4.53921C582.818 4.45513 582.207 4.09294 581.349 3.78978C580.93 4.22796 580.51 4.66615 579.843 5.16336C578.546 6.31784 578.508 6.15776 576.963 5.17226C576.925 5.01218 576.677 5.0712 576.391 4.97015C575.362 5.04615 573.969 6.89995 574.789 7.04304C576.715 7.43029 575.304 8.10454 574.675 8.76182C574.007 9.25903 573.263 9.43608 572.405 9.13291C570.937 8.46755 569.374 8.50151 567.181 9.19275C563.5 10.2381 563.5 10.2381 559.839 10.264C559.305 10.2219 558.142 10.8372 558.256 11.3174C558.237 12.3369 557.989 12.3959 556.597 12.0507C556.311 11.9496 555.224 12.885 554.938 12.784C554.08 12.4808 553.05 12.5568 552.059 12.7929C549.084 13.5011 546.109 14.2093 543.134 14.9175C541.895 15.2126 540.655 15.5077 540.064 16.3251C539.854 16.5442 538.825 16.6202 538.539 16.5191C537.719 16.376 537.147 16.1739 536.193 16.57C535.24 16.9662 534.668 16.7641 533.848 16.621C532.99 16.3178 533.028 16.4779 530.587 17.2281C530.091 17.3462 529.309 17.3632 529.023 17.2621C528.165 16.959 528.032 17.4982 527.574 17.7763C526.411 18.3915 526.449 18.5516 525.343 18.3075C523.379 17.7601 524.103 18.6026 523.97 19.1418C524.008 19.3019 523.55 19.58 523.34 19.7991C520.766 18.8896 521.224 20.8105 519.317 21.6028C519.031 21.5017 518.421 21.1395 517.849 20.9374C517.315 20.8954 516.743 20.6933 516.247 20.8113C514.721 21.0053 513.272 21.5195 511.384 21.2923C509.744 21.0061 508.409 22.0006 507.513 23.7363C507.341 24.1155 507.17 24.4947 506.674 24.6127C505.682 24.8488 505.148 24.8067 504.996 24.1664C504.958 24.0064 504.595 23.5852 504.348 23.6442C502.364 24.1163 501.392 23.3329 500.038 23.1478C499.619 23.586 498.951 24.0832 498.532 24.5214C497.692 25.3977 497.197 25.5158 496.053 25.1116C495.233 24.9685 494.661 24.7663 493.803 24.4632C493.173 25.1205 492.754 25.5586 492.372 26.1569C491.991 26.7552 490.866 27.5305 489.874 27.7665C488.882 28.0026 487.891 28.2387 486.995 27.7755C486.709 27.6744 485.622 28.6098 485.336 28.5087C484.516 28.3656 483.982 28.3236 482.99 28.5597C481.999 28.7957 481.007 29.0318 481.236 29.9923C481.312 30.3124 480.892 30.7506 480.149 30.9276C480.11 30.7676 480.034 30.4474 479.996 30.2873C479.92 29.9672 479.31 29.605 479.138 29.9842C478.089 31.0796 476.525 31.1136 475.286 31.4087C474.294 31.6448 474.123 32.0239 473.989 32.5632C473.856 33.1024 473.188 33.5996 472.769 34.0378C472.349 34.476 471.357 34.7121 471.071 34.611C469.927 34.2068 468.936 34.4429 467.658 34.5779C466.914 34.7549 466.304 34.3927 465.484 34.2497C463.52 33.7023 462.815 34.0395 461.556 35.354C461.384 35.7332 461.461 36.0533 461.289 36.4325C461.327 36.5926 460.869 36.8707 460.869 36.8707C460.583 36.7696 460.049 36.7276 460.049 36.7276C459.954 35.2279 457.132 36.5764 456.446 35.8941C456.236 36.1132 456.236 36.1132 456.026 36.3323C455.435 37.1496 454.405 37.2256 453.413 37.4617C450.648 37.9508 450.61 37.7908 450.229 38.389C449.256 39.8046 447.311 40.4368 445.366 41.0691C444.107 42.3836 443.001 42.1395 441.857 41.7353C441.323 41.6932 440.999 41.4321 440.179 41.289C440.046 41.8282 440.122 42.1484 440.198 42.4685C440.351 43.1088 440.465 43.5891 438.978 43.9432C438.234 44.1202 437.452 44.1372 436.823 44.7945C435.984 45.6708 435.621 45.2496 435.507 44.7694C435.393 44.2892 434.859 44.2472 434.363 44.3652C433.867 44.4832 432.952 45.0395 432.99 45.1995C433.752 46.202 431.445 46.413 431.064 47.0113C430.053 48.2668 429.538 47.2053 428.794 47.3824C427.803 47.6185 427.269 47.5764 426.411 47.2732C425.839 47.0711 425.553 46.9701 424.981 46.768L424.485 46.886C424.275 47.1051 424.313 47.2652 424.142 47.6443C424.18 47.8044 424.256 48.1246 424.294 48.2846C423.55 48.4617 422.597 48.8578 422.559 48.6978C421.339 47.9734 420.461 48.6897 419.832 49.347L419.336 49.465C418.173 50.0802 418.001 50.4594 418.897 50.9226C419.183 51.0237 419.469 51.1248 419.755 51.2258C419.126 51.8831 418.458 52.3803 417.829 53.0376C417.028 54.074 415.712 54.049 414.473 54.3441C414.225 54.4031 413.901 54.142 413.863 53.9819C413.825 53.8218 413.748 53.5016 413.958 53.2826C414.588 52.6253 415.903 52.6503 416.247 51.892C416.418 51.5128 417.658 51.2177 416.552 50.9736C416.266 50.8725 415.274 51.1086 414.817 51.3867C413.31 52.7603 411.289 53.0724 409.153 52.9042C408.619 52.8622 408.085 52.8201 407.341 52.9972C405.816 53.1912 405.606 53.4103 405.549 54.2697C405.587 54.4298 405.663 54.7499 405.701 54.91C405.777 55.2302 405.358 55.6683 404.614 55.8454C402.879 56.2585 400.934 56.8908 399.428 56.0653C399.389 55.9052 399.142 55.9643 398.856 55.8632C398.36 55.9812 397.578 55.9982 397.082 56.1163C396.834 56.1753 396.663 56.5544 396.739 56.8746C396.815 57.1947 397.177 57.6159 397.006 57.9951C396.796 58.2142 396.128 58.7114 395.632 58.8295C394.889 59.0065 394.317 58.8044 394.488 58.4252C394.66 58.0461 394.832 57.6669 395.289 57.3888C395.499 57.1697 395.671 56.7905 394.927 56.9676C392.696 57.4987 390.313 57.3896 388.634 59.1423C388.215 59.5805 387.147 59.4965 386.537 59.1343C386.499 58.9742 386.251 59.0332 386.003 59.0922C385.755 59.1512 385.545 59.3703 385.545 59.3703C385.24 60.2887 386.212 61.0721 384.839 61.9065C385.125 62.0075 385.411 62.1086 385.697 62.2097C385.983 62.3107 385.983 62.3107 386.269 62.4118C386.06 62.6308 385.85 62.85 385.354 62.968C385.106 63.027 384.362 63.2041 384.076 63.103C382.608 62.4376 381.693 62.9939 380.606 63.9293C380.396 64.1483 379.576 64.0053 378.832 64.1823C378.794 64.0222 379.004 63.8031 379.214 63.5841C379.176 63.424 379.424 63.365 379.633 63.1459C379.595 62.9858 379.767 62.6066 379.729 62.4465C379.691 62.2865 379.157 62.2444 378.871 62.1434C378.661 62.3625 378.661 62.3625 378.451 62.5816C377.994 62.8597 377.822 63.2388 377.25 63.0367C376.964 62.9357 376.43 62.8936 376.392 62.7336C375.744 62.2113 374.809 61.588 374.161 61.0657C373.875 60.9647 373.799 60.6445 373.513 60.5435C372.483 60.6195 371.53 61.0156 371.301 60.0552C371.072 59.0947 372.96 59.3219 373.341 58.7236C373.723 58.1254 374.429 57.7882 375.458 57.7122C376.736 57.5772 377.117 56.979 377.747 56.3217C377.956 56.1026 377.957 56.1026 378.166 55.8835C378.166 55.8835 377.88 55.7824 377.842 55.6224C377.594 55.6814 377.556 55.5213 377.308 55.5803C375.325 56.0525 372.884 56.8027 371.073 56.8957C369.223 56.8286 367.717 56.0032 366.039 55.5569C364.361 55.1107 364.59 53.8721 366.707 52.8607C367.412 52.5236 368.442 52.4476 369.148 52.1105C369.395 52.0514 369.319 51.7313 369.987 51.2341C372.542 50.9641 373.133 50.1467 373.972 49.2703C373.972 49.2703 373.934 49.1103 373.648 49.0092C373.4 49.0682 373.362 48.9081 373.114 48.9672C371.551 49.0011 371.322 50.2397 370.082 50.5348C369.091 50.7708 368.747 51.5292 369.243 51.4111C369.739 51.2931 369.987 51.2341 369.987 51.2341C368.251 51.6472 366.84 52.3215 366.535 51.0409C366.497 50.8808 365.925 50.6787 365.677 50.7377C364.686 50.9738 363.618 50.8897 362.741 51.606C362.531 51.8251 362.149 52.4234 361.539 52.0612C360.681 51.758 359.899 51.775 359.022 52.4913C358.565 52.7694 358.107 53.0475 357.611 53.1655C356.2 53.8398 357.23 53.7638 357.592 54.185C357.916 54.4461 357.992 54.7663 358.316 55.0274C358.469 55.6677 358.659 56.4681 358.812 57.1084C354.96 58.5329 354.96 58.5329 352.424 57.7835C353.339 57.2272 353.434 56.5279 354.922 56.1738C354.636 56.0728 354.426 56.2919 354.75 56.553C354.788 56.7131 355.036 56.654 355.284 56.595C355.532 56.536 356.066 56.578 356.314 56.519C356.562 56.46 357.019 56.1819 357.229 55.9628C356.943 55.8617 356.657 55.7607 356.371 55.6596C356.123 55.7186 355.627 55.8367 354.884 56.0137C354.445 55.2724 353.206 55.5675 352.31 55.1042C351.47 55.9806 350.345 56.7559 349.754 57.5733C349.334 58.0115 350.059 58.8539 348.533 59.0479C347.046 59.402 345.101 60.0342 343.881 59.3099C343.557 59.0487 343.232 58.7876 343.156 58.4675C343.08 58.1473 344.281 57.6921 345.063 57.6752C346.913 57.7423 347.79 57.026 347.809 56.0065C347.695 55.5263 346.341 55.3411 345.96 55.9394C345.121 56.8158 344.167 57.2119 342.889 57.3469C342.146 57.524 341.002 57.1198 341.421 56.6816C342.26 55.8052 342.566 54.8868 342.127 54.1454C342.089 53.9854 342.585 53.8673 342.795 53.6482C343.729 54.2716 345.14 53.5973 346.17 53.5213C347.2 53.4453 348.553 53.6304 348.744 54.4308C348.782 54.5909 349.068 54.6919 349.392 54.9531C349.812 54.5149 350.022 54.2958 350.479 54.0177C351.147 53.5205 350.613 53.4784 350.289 53.2173C349.068 52.4929 349.068 52.4929 350.937 51.5406C351.185 51.4815 351.643 51.2034 351.853 50.9843C350.785 50.9003 349.641 50.496 348.649 50.7321C347.41 51.0272 346.189 50.3028 345.522 50.8C344.893 51.4573 343.577 51.4323 342.948 52.0895C342.566 52.6878 341.822 52.8649 340.831 53.1009C338.848 53.5731 336.617 54.1042 334.633 54.5764C334.138 54.6944 333.432 55.0316 332.974 55.3097C331.429 56.5232 331.697 55.4447 331.334 55.0235C331.296 54.8634 330.762 54.8214 330.514 54.8804L330.057 55.1585C330.61 56.3801 330.342 57.4586 327.692 58.4279C327.444 58.4869 326.986 58.765 326.814 59.1442C325.842 60.5598 324.068 60.8129 322.085 61.285C321.971 60.8048 321.399 60.6027 320.121 60.7377C319.625 60.8557 319.911 60.9568 320.159 60.8978L320.655 60.7797C320.655 60.7797 320.617 60.6197 320.579 60.4596C320.293 60.3585 320.007 60.2575 319.759 60.3165C319.759 60.3165 319.549 60.5356 320.121 60.7377C320.769 61.2599 321.341 61.4621 322.085 61.285C322.238 61.9253 322.924 62.6076 320.941 63.0798C319.491 63.594 320.292 64.7565 319.167 65.5318C319.605 66.2732 318.9 66.6103 317.66 66.9054C316.421 67.2005 315.181 67.4956 313.942 67.7907C313.694 67.8497 313.122 67.6476 313.084 67.4875C312.683 66.9062 312.493 66.1059 312.34 65.4656C312.302 65.3055 312.054 65.3645 311.807 65.4235C311.807 65.4235 311.597 65.6426 311.349 65.7016C311.387 65.8617 311.215 66.2409 311.253 66.401C311.844 67.7826 311.615 69.0212 308.679 69.8895C308.183 70.0075 308.373 70.8079 307.954 71.2461C307.534 71.6842 306.543 71.9203 306.085 72.1984C306.886 73.361 304.826 73.513 303.663 74.1282C304.807 74.5325 305.627 74.6755 306.485 74.9787L306.351 75.518C305.608 75.695 304.406 76.1502 303.872 76.1082C301.584 75.2997 299.544 76.6312 297.274 77.0023C297.027 77.0613 296.817 77.2804 296.817 77.2804C297.103 77.3815 297.141 77.5416 297.427 77.6426C297.713 77.7437 297.713 77.7437 298.247 77.7857C297.16 78.7211 295.863 79.8756 294.814 80.971C294.146 81.4682 293.441 81.8054 292.831 81.4432C291.687 81.039 290.523 81.6542 289.379 81.25C288.769 80.8878 287.32 81.402 287.396 81.7221C287.396 81.7221 287.434 81.8822 287.72 81.9833C288.006 82.0843 288.292 82.1854 288.826 82.2274C288.197 82.8847 287.32 83.601 286.69 84.2583C287.51 84.4014 288.082 84.6035 288.692 84.9657C289.836 85.3699 289.741 86.0692 289.397 86.8275C289.436 86.9876 288.73 87.3247 288.444 87.2237C287.91 87.1816 287.376 87.1396 286.842 87.0976C286.022 86.9545 285.412 86.5923 284.135 86.7273C282.647 87.0814 283.162 85.9439 282.762 85.3626L282.8 85.5227L283.296 85.4047C283.753 85.1266 284.211 84.8485 283.391 84.7054C283.391 84.7054 282.934 84.9835 282.762 85.3626C282.056 85.6998 281.275 85.7167 281.065 85.9358C279.94 86.7112 279.139 87.7476 277.479 88.4809C276.03 88.9951 275.553 90.2926 273.856 90.8658C273.36 90.9839 273.551 91.7842 273.417 92.3235C272.845 92.1214 272.311 92.0793 271.739 91.8772C270.919 91.7341 271.129 91.515 271.549 91.0769C271.968 90.6387 272.388 90.2005 273.341 89.8043C274.295 89.4082 274.676 88.8099 275.306 88.1527C274.333 87.3693 276.736 86.4589 276.012 85.6165C275.573 84.8752 275.383 84.0748 275.402 83.0553C275.535 82.5161 276.165 81.8588 276.298 81.3196C276.47 80.9404 276.146 80.6793 275.822 80.4181C275.784 80.2581 275.536 80.3171 275.25 80.216C274.22 80.292 273.762 80.5701 273.133 81.2274C272.713 81.6656 272.046 82.1628 273.114 82.2469C273.648 82.2889 273.724 82.6091 273.228 82.7271C272.027 83.1823 270.787 83.4774 269.548 83.7725C268.308 84.0676 267.603 84.4047 266.973 85.0619C266.973 85.0619 266.439 85.0199 266.153 84.9188C264.304 84.8518 263.808 84.9698 263.789 85.9893C263.865 86.3094 263.941 86.6296 263.769 87.0087C263.808 87.1688 263.102 87.5059 262.854 87.5649C262.606 87.624 261.824 87.6409 261.824 87.6409C261.424 87.0597 261.233 86.2593 261.081 85.619C261.005 85.2989 261.71 84.9617 261.882 84.5826C262.473 83.7652 264.285 83.6722 264.628 82.9139C264.838 82.6948 265.048 82.4757 265.258 82.2566C264.972 82.1555 264.438 82.1135 264.19 82.1725C262.95 82.4676 261.921 82.5436 260.567 82.3585C259.747 82.2154 258.088 82.9487 256.81 83.0837C256.028 83.1007 255.456 82.8986 254.846 82.5364C254.56 82.4353 254.408 81.795 254.618 81.5759C255.247 80.9186 255.876 80.2614 257.364 79.9073C259.347 79.4351 259.519 79.0559 258.012 78.2305C257.974 78.0704 257.478 78.1885 257.44 78.0284C257.364 77.7083 257.002 77.287 257.707 76.9499C258.661 76.5538 259.367 76.2166 260.244 75.5003C260.911 75.0031 261.693 74.9862 262.303 75.3483C262.627 75.6095 263.123 75.4914 263.295 75.1123C263.428 74.573 263.314 74.0928 263.2 73.6126C263.124 73.2924 263.543 72.8542 264.287 72.6772C265.526 72.3821 266.842 72.4072 266.537 71.1266C266.423 70.6463 267.586 70.0311 268.215 69.3738C268.635 68.9356 268.521 68.4554 268.902 67.8571C269.532 67.1999 270.199 66.7027 270.828 66.0454C271.038 65.8263 271.534 65.7083 271.744 65.4892C272.869 64.7138 272.869 64.7139 271.763 64.4697C271.477 64.3686 271.191 64.2676 270.657 64.2256C269.589 64.1415 270.791 63.6863 270.714 63.3662C270.982 62.2877 272.069 61.3523 272.908 60.4759C273.747 59.5996 273.766 58.5801 274.319 57.6027C274.701 57.0044 275.769 57.0885 276.474 56.7514C276.722 56.6923 277.428 56.3552 277.39 56.1951C277.313 55.875 277.447 55.3357 277.161 55.2347C276.551 54.8725 275.483 54.7884 274.625 54.4852C275.502 53.769 276.132 53.1117 277.009 52.3954C277.638 51.7381 278.554 51.1819 278.935 50.5836C279.317 49.9854 279.698 49.3871 279.832 48.8478C279.889 47.9885 280.309 47.5503 281.796 47.1962C283.741 46.5639 285.324 45.5105 287.307 45.0384C288.795 44.6843 287.689 44.4401 287.117 44.238C287.078 44.0779 286.831 44.1369 286.792 43.9769C286.964 43.5977 286.888 43.2776 287.06 42.8984C287.346 42.9994 287.632 43.1005 288.165 43.1425C288.413 43.0835 288.452 43.2436 288.699 43.1846C290.244 41.9711 290.931 40.4544 293.372 39.7041C293.925 38.7267 295.489 38.6928 296.442 38.2966C297.186 38.1196 298.463 37.9845 298.063 37.4033C297.987 37.0831 296.843 36.6789 296.099 36.8559C295.069 36.9319 294.04 37.0079 293.162 37.7242C292.247 38.2805 292.247 38.2805 291.427 38.1374C291.141 38.0363 290.855 37.9352 290.321 37.8932C291.236 37.337 292.152 36.7808 293.067 36.2245C293.773 35.8874 294.517 35.7104 295.375 36.0135C296.233 36.3167 296.366 35.7775 296.576 35.5584C296.996 35.1202 296.996 35.1202 297.568 35.3223C298.426 35.6255 299.493 35.7095 300.085 34.8922C300.848 33.6957 303.079 33.1645 304.128 32.069C304.757 31.4118 304.719 31.2517 303.441 31.3867C302.412 31.4627 302.087 31.2016 301.268 31.0585C300.448 30.9154 300.657 30.6963 301.077 30.2581C301.497 29.8199 302.164 29.3227 302.584 28.8845C301.688 28.4213 300.524 29.0365 299.781 29.2136C299.037 29.3906 298.961 29.0705 298.598 28.6493C298.16 27.9079 297.13 27.9839 296.253 28.7002C295.376 29.4165 295.07 30.3349 293.831 30.63C293.545 30.529 293.469 30.2088 293.183 30.1078C292.649 30.0657 291.867 30.0827 291.085 30.0997C291.467 29.5014 292.535 29.5855 293.24 29.2484C294.194 28.8522 294.823 28.1949 295.815 27.9589C297.55 27.5457 296.616 26.9224 296.997 26.3242C297.207 26.1051 297.665 25.827 297.951 25.928C298.198 25.869 298.732 25.911 299.018 26.0121C300.41 26.3573 301.936 26.1633 302.775 25.2869C303.652 24.5706 304.682 24.4946 305.635 24.0984C306.837 23.6433 306.97 23.104 306.074 22.6408C305.502 22.4387 304.606 21.9754 305.064 21.6973C307.066 20.2057 307.009 18.8661 306.914 17.3664C306.876 17.2063 307.124 17.1473 307.372 17.0883C307.372 17.0883 307.658 17.1894 307.906 17.1303C307.944 17.2904 308.268 17.5515 308.306 17.7116C308.706 18.2929 309.66 17.8967 310.404 17.7197C311.147 17.5426 312.177 17.4667 311.986 16.6663C311.758 15.7058 312.749 15.4698 313.779 15.3938C315.019 15.0987 315.438 14.6605 315.286 14.0202C315.248 13.8601 316.201 13.4639 316.659 13.1858C317.65 12.9498 318.661 13.8932 319.386 12.5366C320.625 12.2415 321.865 11.9465 323.066 11.4913C323.314 11.4323 323.734 10.9941 323.696 10.834C323.543 10.1937 323.429 9.71349 323.276 9.07319C323.162 8.59297 323.62 8.31486 324.363 8.13781C325.107 7.96076 325.565 7.68263 325.489 7.36249C325.584 6.66317 325.184 6.08189 325.069 5.60167C325.089 4.58221 325.947 4.88537 326.519 5.08749C326.843 5.34862 327.586 5.17156 327.262 4.91044C326.824 4.16908 328.483 3.4358 328.33 2.7955C328.178 2.1552 328.884 1.81807 329.303 1.37989C329.933 0.722617 331.706 0.469548 332.049 -0.288785C332.431 -0.887042 332.488 -1.74644 332.946 -2.02455C334.109 -2.63979 335.635 -2.83381 333.423 -3.32211C332.603 -3.46521 332.031 -3.66731 331.459 -3.86943C331.173 -3.97049 330.639 -4.01252 330.601 -4.1726C330.315 -4.27366 330.239 -4.5938 330.448 -4.8129C330.658 -5.03199 330.868 -5.25109 331.364 -5.36913C332.107 -5.54618 333.099 -5.78226 333.843 -5.95931C334.339 -6.07734 334.834 -6.19538 335.044 -6.41447C336.131 -7.34987 336.722 -8.1672 338.668 -8.79942C339.907 -9.09452 341.49 -10.148 342.615 -10.9233C343.073 -11.2014 343.607 -11.1593 343.683 -10.8392C343.759 -10.519 344.121 -10.0978 343.95 -9.71867C343.358 -8.90131 342.691 -8.40411 344.331 -8.11793C344.617 -8.01687 344.483 -7.47763 344.559 -7.15748C344.312 -7.09846 343.606 -6.76134 343.644 -6.60126C343.511 -6.06202 344.254 -6.23907 344.998 -6.41613L344.75 -6.3571C344.75 -6.3571 344.788 -6.19703 344.826 -6.03696C345.112 -5.9359 345.684 -5.73378 345.856 -6.11295C345.856 -6.11295 345.532 -6.37408 344.998 -6.41613C344.674 -6.67726 344.636 -6.83733 344.598 -6.9974C346.543 -7.62963 346.448 -9.12931 348.679 -9.66048C349.174 -9.77851 349.194 -10.798 348.412 -10.781C347.63 -10.764 346.848 -10.747 346.066 -10.7301C344.179 -10.9572 343.912 -12.0778 345.171 -13.3923C345.38 -13.6114 345.59 -13.8305 345.8 -14.0496C347.116 -14.0245 346.143 -12.6089 348.126 -13.0811C349.614 -13.4352 350.281 -13.9324 351.158 -14.6487C351.578 -15.0868 351.998 -15.525 352.493 -15.6431C353.981 -15.9972 354.114 -16.5364 353.962 -17.1767C353.962 -17.1767 354.42 -17.4548 354.667 -17.5139C355.201 -17.4718 355.773 -17.2697 356.269 -17.3877C357.547 -17.5228 357.776 -18.7613 359.301 -18.9554C359.301 -18.9554 359.721 -19.3935 359.683 -19.5536C359.854 -19.9328 359.988 -20.472 360.236 -20.531C360.942 -20.8682 361.971 -20.9442 362.715 -21.1212C363.211 -21.2393 363.783 -21.0372 364.069 -20.9361C364.584 -22.0736 366.719 -21.9054 367.597 -22.6217C367.807 -22.8408 367.768 -23.0009 367.94 -23.3801C368.283 -24.1384 368.283 -24.1384 369.961 -23.6921C370.591 -24.3494 370.972 -24.9477 371.64 -25.4449C372.727 -26.3803 373.49 -27.5768 375.53 -26.7093C377.761 -27.2405 380.145 -27.1314 381.861 -28.724C384.168 -28.935 385.103 -30.5107 387.372 -30.8818C390.137 -31.371 390.099 -31.531 392.559 -33.3007C393.017 -33.5789 393.97 -33.975 394.256 -33.8739C395.686 -33.3687 396.678 -33.6047 397.975 -34.7592C398.394 -35.1974 399.596 -35.6526 400.263 -36.1498C400.931 -36.647 402.208 -36.782 403.276 -36.6979C404.058 -36.7149 404.668 -36.3527 405.622 -36.7489C407.071 -37.2631 408.921 -37.196 409.76 -38.0723C410.847 -39.0077 412.448 -38.8816 413.116 -39.3788C414.203 -40.3142 415.443 -40.6093 416.93 -40.9634C419.657 -41.6126 422.422 -42.1017 425.111 -42.911C427.799 -43.7203 430.965 -43.6281 433.139 -45.4989C434.378 -45.794 435.618 -46.0891 436.857 -46.3842C438.097 -46.6793 439.05 -47.0754 440.214 -47.6907C441.339 -48.466 443.322 -48.9381 444.714 -48.5929C445.534 -48.4498 445.706 -48.829 446.163 -49.1071C447.784 -50.0005 449.272 -50.3546 450.873 -50.2284C451.655 -50.2454 452.227 -50.0433 453.219 -50.2794C455.488 -50.6505 457.815 -51.881 459.817 -51.1736C461.552 -51.5867 463.611 -51.7387 464.584 -53.1543C465.175 -53.9717 465.957 -53.9886 466.815 -53.6855C467.101 -53.5844 467.845 -53.7615 468.055 -53.9806C469.065 -55.2361 470.839 -55.4892 472.364 -55.6832C473.604 -55.9783 474.557 -56.3744 475.435 -57.0907C476.102 -57.5879 477.418 -57.5629 478.409 -57.7989C479.859 -58.3131 480.927 -58.2291 481.823 -57.7658C482.395 -57.5637 482.967 -57.3616 483.462 -57.4796C486.113 -58.449 486.8 -57.7666 486.856 -56.427C486.933 -56.1069 487.047 -55.6267 487.581 -55.5846C488.611 -55.6606 489.64 -55.7366 490.25 -55.3744C490.46 -55.5935 490.918 -55.8716 490.88 -56.0317C491.09 -56.2508 490.766 -56.5119 490.727 -56.672C490.537 -57.4724 490.747 -57.6915 492.234 -58.0456C493.474 -58.3407 493.855 -58.9389 494.77 -59.4952C495.438 -59.9924 496.792 -59.8072 497.669 -60.5235C497.879 -60.7426 498.26 -61.3409 498.87 -60.9787C499.156 -60.8776 499.976 -60.7345 500.434 -61.0126C502.131 -61.5858 503.027 -61.1226 504.171 -60.7184C503.79 -60.1201 502.76 -60.0441 502.016 -59.8671C500.815 -59.4119 500.605 -59.1928 500.72 -58.7126C500.796 -58.3924 501.368 -58.1903 502.112 -58.3674C504.095 -58.8395 505.83 -59.2527 507.813 -59.7248C508.557 -59.9019 508.195 -60.3231 507.661 -60.3651C507.375 -60.4662 507.089 -60.5672 507.013 -60.8874C506.936 -61.2075 507.318 -61.8058 507.566 -61.8648C512.276 -62.9861 517.234 -64.1665 521.944 -65.2879C522.688 -65.4649 523.298 -65.1027 524.041 -65.2798C524.537 -65.3978 524.919 -65.9961 525.415 -66.1141C525.872 -66.3922 526.864 -66.6283 527.15 -66.5272C528.866 -65.9209 530.811 -66.5531 532.508 -67.1263C533.748 -67.4214 534.529 -67.4384 535.387 -67.1352C535.845 -67.4133 536.265 -67.8515 536.475 -68.0706C538.019 -67.0851 538.668 -68.7619 539.945 -68.8969C540.441 -69.0149 540.975 -68.9729 541.185 -69.192C542.806 -70.0853 544.178 -68.7207 545.837 -69.4539C547.935 -69.4458 548.374 -70.9035 550.109 -71.3166C550.853 -71.4937 551.596 -71.6707 552.454 -71.3676C553.846 -71.0224 555.887 -72.3539 556.897 -71.4104C558.633 -71.8236 560.12 -72.1777 561.855 -72.5908C563.744 -74.5626 566.909 -74.4705 569.388 -75.0607C571.619 -75.5918 574.25 -75.5417 575.261 -74.5982C576.309 -73.4947 576.481 -73.8739 577.32 -74.7502C579.36 -73.8828 581.859 -75.4924 583.708 -75.4253C585.31 -75.2992 586.168 -74.9961 587.179 -76.2516C589.62 -77.0019 592.023 -77.9122 594.406 -77.803C596.732 -76.8345 596.522 -76.6154 596.389 -76.0762C596.427 -75.9161 596.675 -75.9751 596.637 -76.1352L596.561 -76.4553L596.065 -76.3373C595.855 -76.1182 595.645 -75.8991 595.683 -75.7391C595.645 -75.8991 595.931 -75.7981 596.389 -76.0762ZM564.428 -62.8853C564.638 -63.1044 564.886 -63.1634 565.095 -63.3825L565.019 -63.7026L564.523 -63.5846C564.314 -63.3655 564.104 -63.1464 564.142 -62.9863C564.142 -62.9863 564.428 -62.8853 565.267 -63.7617C566.259 -63.9977 566.469 -64.2168 566.24 -65.1773C566.278 -65.0172 566.316 -64.8571 566.316 -64.8571C567.136 -64.714 568.166 -64.79 569.195 -64.866C569.443 -64.925 570.149 -65.2622 570.111 -65.4222C569.71 -66.0035 567.823 -66.2307 566.621 -65.7755C566.373 -65.7165 566.412 -65.5564 566.278 -65.0172C565.324 -64.621 564.905 -64.1829 564.428 -62.8853ZM560.9 -61.1996C561.11 -61.4187 561.358 -61.4777 561.568 -61.6968L561.491 -62.017L560.995 -61.8989C560.786 -61.6799 560.576 -61.4608 560.614 -61.3007C560.614 -61.3007 560.9 -61.1996 561.663 -62.3961C561.701 -62.2361 561.739 -62.076 561.739 -62.076L562.235 -62.194C562.693 -62.4721 563.15 -62.7503 562.33 -62.8933C562.044 -62.9944 561.625 -62.5562 560.9 -61.1996ZM820.214 -75.5741C820.5 -75.4731 820.538 -75.313 820.824 -75.212L821.32 -75.33C821.32 -75.33 821.282 -75.4901 821.244 -75.6501C820.958 -75.7512 820.672 -75.8523 820.424 -75.7932C820.424 -75.7932 820.214 -75.5741 821.32 -75.33C821.434 -74.8498 822.006 -74.6477 822.712 -74.9848C822.75 -74.8247 822.788 -74.6646 822.788 -74.6646C821.663 -73.8893 821.567 -73.19 821.377 -71.7914C821.586 -72.0105 821.834 -72.0695 822.044 -72.2886L821.968 -72.6087L821.472 -72.4907C821.262 -72.2716 821.052 -72.0525 821.091 -71.8924C821.091 -71.8924 821.377 -71.7914 822.216 -72.6677L824.695 -73.2579C825.133 -72.5166 826.201 -72.4325 827.269 -72.3484C827.517 -72.4074 828.013 -72.5255 828.222 -72.7446C828.432 -72.9637 828.604 -73.3428 828.318 -73.4439C827.67 -73.9661 826.773 -74.4294 825.534 -74.1343C825.095 -74.8757 823.99 -75.1198 822.712 -74.9848C822.845 -75.524 822.559 -75.6251 820.214 -75.5741ZM831.387 -68.2544C831.673 -68.1534 831.711 -67.9933 831.959 -68.0523L832.455 -68.1703C832.455 -68.1703 832.417 -68.3304 832.378 -68.4905C832.378 -68.4905 832.092 -68.5915 831.845 -68.5325C831.845 -68.5325 831.635 -68.3134 833.237 -68.1873C832.989 -68.1283 832.741 -68.0693 832.741 -68.0693C832.741 -68.0693 832.779 -67.9092 832.817 -67.7491C833.103 -67.6481 833.675 -67.446 833.847 -67.8251C833.809 -67.9852 833.484 -68.2463 831.387 -68.2544ZM831.652 -56.1389C831.938 -56.0378 831.976 -55.8777 832.224 -55.9368L832.72 -56.0548C832.72 -56.0548 832.681 -56.2149 832.643 -56.3749C832.643 -56.3749 832.357 -56.476 831.823 -56.518C831.823 -56.518 831.614 -56.2989 832.72 -56.0548C832.872 -55.4145 833.406 -55.3725 834.893 -55.7266C834.645 -55.6675 834.398 -55.6085 834.398 -55.6085C834.398 -55.6085 834.436 -55.4485 834.474 -55.2884C834.76 -55.1873 835.084 -54.9262 835.465 -55.5245C835.465 -55.5245 835.141 -55.7856 834.359 -55.7686C834.283 -56.0888 833.711 -56.2909 831.652 -56.1389ZM332.04 52.4873C332.288 52.4283 332.536 52.3693 332.536 52.3693C332.746 52.1502 333.242 52.0322 333.204 51.8721C333.299 51.1728 332.384 51.729 331.888 51.847C331.392 51.9651 331.22 52.3442 330.725 52.4623C331.011 52.5633 331.506 52.4453 333.013 51.0717L333.089 51.3919C333.337 51.3329 333.585 51.2738 333.585 51.2738C334.043 50.9957 334.5 50.7176 333.681 50.5745C333.719 50.7346 333.509 50.9537 332.04 52.4873ZM392.374 48.4416C392.374 48.4416 392.412 48.6017 392.45 48.7617C392.946 48.6437 393.689 48.4666 394.185 48.3486C394.433 48.2896 394.605 47.9104 394.814 47.6913C394.814 47.6913 394.528 47.5903 394.281 47.6493C393.499 47.6663 392.755 47.8433 391.859 49.5791C392.068 49.36 392.316 49.301 392.526 49.0819L392.45 48.7617L391.954 48.8798C391.744 49.0989 391.534 49.318 391.573 49.478C391.573 49.478 391.858 49.5791 392.374 48.4416ZM473.837 27.5249C474.123 27.6259 474.162 27.786 474.448 27.8871L474.943 27.769C474.943 27.769 474.905 27.609 474.867 27.4489C474.581 27.3478 474.295 27.2468 474.047 27.3058C474.047 27.3058 473.837 27.5249 474.943 27.769C474.81 28.3083 475.344 28.3503 476.087 28.1733C476.831 27.9962 477.823 27.7601 477.346 26.8587C477.384 27.0188 477.422 27.1788 477.422 27.1788L477.918 27.0608C478.376 26.7827 478.834 26.5046 478.014 26.3615C478.014 26.3615 477.556 26.6396 477.422 27.1788C476.888 27.1368 476.145 27.3139 473.837 27.5249ZM368.252 47.2492C368.538 47.3503 368.576 47.5103 368.862 47.6114L369.358 47.4934C369.358 47.4934 369.32 47.3333 369.282 47.1732C368.996 47.0722 368.71 46.9711 368.462 47.0301C368.462 47.0301 368.252 47.2492 369.854 47.3753C369.32 47.3333 369.11 47.5524 369.434 47.8135C369.758 48.0746 369.835 48.3948 369.911 48.7149C370.159 48.6559 370.407 48.5969 370.616 48.3778C370.826 48.1587 371.036 47.9396 371.246 47.7205C371.456 47.5014 371.379 47.1813 371.379 47.1813C371.093 47.0802 370.598 47.1983 370.35 47.2573C370.598 47.1983 370.35 47.2573 368.252 47.2492ZM272.81 76.5683C272.028 76.5853 271.608 77.0234 271.685 77.3436C271.799 77.8238 271.951 78.4641 271.512 79.9218C271.722 79.7027 271.97 79.6436 272.18 79.4245L272.104 79.1044L271.608 79.2224C271.398 79.4415 271.188 79.6606 271.226 79.8207C271.226 79.8207 271.513 79.9217 272.352 79.0454C273.095 78.8683 273.553 78.5902 273.477 78.2701C273.363 77.7898 273.21 77.1495 272.981 76.1891C272.772 76.4082 272.772 76.4082 272.81 76.5683L273.305 76.4502C275.041 76.0371 275.289 75.9781 275.098 75.1777C275.06 75.0176 274.774 74.9166 274.488 74.8155C274.488 74.8155 274.24 74.8745 273.992 74.9336C273.573 75.3717 273.153 75.8099 272.81 76.5683ZM496.752 -48.9723C498.029 -49.1073 499.231 -49.5624 499.822 -50.3798C499.822 -50.3798 500.318 -50.4978 501.061 -50.6749C500.814 -50.6159 500.566 -50.5569 500.566 -50.5569C500.566 -50.5569 500.604 -50.3968 500.642 -50.2367C500.928 -50.1357 501.5 -49.9335 501.672 -50.3127C501.672 -50.3127 501.347 -50.5738 500.566 -50.5569C500.413 -51.1972 499.631 -51.1802 498.926 -50.8431C497.972 -50.4469 497.095 -49.7306 495.703 -47.8768C495.951 -47.9358 496.199 -47.9948 496.199 -47.9948C496.408 -48.2139 496.904 -48.332 496.866 -48.492C496.961 -49.1914 496.046 -48.6351 495.55 -48.5171C495.055 -48.3991 494.883 -48.0199 494.387 -47.9019C494.883 -48.0199 495.169 -47.9188 496.752 -48.9723ZM836.479 -74.372C836.727 -74.431 837.433 -74.7682 837.395 -74.9283C837.528 -75.4675 836.784 -75.2904 836.289 -75.1724C836.251 -75.3325 836.174 -75.6526 846.224 -78.5526C844.794 -79.0579 843.402 -79.4031 842.01 -79.7483C841.438 -79.9504 840.618 -80.0935 839.665 -79.6974L839.054 -80.0595C840.847 -81.3321 838.788 -81.1801 837.968 -81.3232C837.968 -81.3232 837.224 -81.1461 837.262 -80.986C837.129 -80.4468 837.567 -79.7054 837.147 -79.2672C836.27 -78.5509 836.957 -77.8686 835.831 -77.0933C835.622 -76.8742 835.736 -76.394 835.564 -76.0148C835.602 -75.8547 835.602 -75.8547 835.64 -75.6947C835.888 -75.7537 836.136 -75.8127 836.136 -75.8127C837.09 -76.2088 837.509 -76.647 837.929 -77.0852C839.436 -78.4588 839.436 -78.4588 841.228 -77.5323C841.552 -77.2712 842.086 -77.2291 842.658 -77.027C843.764 -76.7829 844.298 -76.7408 845.137 -77.6172C845.595 -77.8953 846.014 -78.3335 836.384 -75.8717C835.183 -75.4166 834.115 -75.5006 833.009 -75.7448C832.475 -75.7868 831.274 -75.3316 831.312 -75.1716C831.254 -74.3122 830.987 -73.2337 832.417 -72.7284L832.913 -72.8465C833.142 -71.886 834.305 -72.5013 835.297 -72.7373C836.784 -73.0914 836.784 -73.0914 836.517 -74.212C836.555 -74.0519 836.517 -74.212 836.479 -74.372ZM726.943 -32.7328C726.943 -32.7328 726.981 -32.5728 727.229 -32.6318C727.725 -32.7498 728.259 -32.7078 729.002 -32.8848C729.536 -32.8428 729.746 -33.0619 729.422 -33.323C729.384 -33.4831 729.136 -33.4241 728.85 -33.5251C728.03 -33.6682 726.829 -33.213 732.473 -33.7111C730.986 -33.357 730.242 -33.1799 729.498 -33.0029L729.574 -32.6827C730.89 -32.6577 731.996 -32.4135 733.312 -32.3884C733.56 -32.4475 734.056 -32.5655 734.265 -32.7846C734.475 -33.0037 734.685 -33.2228 734.647 -33.3829C734.609 -33.5429 734.532 -33.8631 734.246 -33.9641C733.255 -33.7281 732.511 -33.551 726.943 -32.7328ZM390.847 53.0336C390.771 52.7135 390.695 52.3933 390.581 51.9131C390.542 51.753 390.008 51.711 389.761 51.77L389.303 52.0481C389.417 52.5284 389.284 53.0676 389.608 53.3287C389.646 53.4888 389.97 53.7499 390.466 53.6319C391.743 53.4969 390.599 53.0927 396.282 50.5557C395.367 51.1119 394.451 51.6681 393.498 52.0643C392.335 52.6795 391 53.6739 390.408 54.4913C390.447 54.6514 390.199 54.7104 390.237 54.8705C390.523 54.9715 391.057 55.0136 391.305 54.9545C392.296 54.7185 393.04 54.5414 393.955 53.9852C395.29 52.9908 396.873 51.9373 399.142 51.5663C399.39 51.5072 399.562 51.1281 399.772 50.909C399.772 50.909 399.486 50.8079 399.238 50.8669C398.208 50.9429 397.56 50.4207 390.847 53.0336ZM426.055 7.26995C427.829 7.0169 429.068 6.72181 430.308 6.42672C431.299 6.19065 432.539 5.89555 433.531 5.65948C434.274 5.48242 434.332 4.62304 435.361 4.54703C435.323 4.38696 435.285 4.22688 435.285 4.22688C435.247 4.06681 434.961 3.96576 434.713 4.02478C432.978 4.4379 431.452 4.63195 429.755 5.20515C428.554 5.66031 427.676 6.3766 444.228 3.28177C445.22 3.04569 445.468 2.98667 445.964 2.86863C446.669 2.5315 446.879 2.31242 446.765 1.8322C446.727 1.67212 446.402 1.41099 446.116 1.30993C446.116 1.30993 445.869 1.36895 445.583 1.26789C444.343 1.56298 442.684 2.29626 442.589 0.796578L441.807 0.813559C440.758 1.90902 439.709 3.00449 437.402 3.2155C437.154 3.27452 436.811 4.03286 436.315 4.15089C435.819 4.26892 435.571 4.32794 435.895 4.58907C435.933 4.74915 436.181 4.69013 436.467 4.79119C438.698 4.26002 441.082 4.36915 442.55 2.8355C442.589 2.99558 443.656 3.07965 426.055 7.26995ZM492.975 -42.8296C491.983 -42.5935 490.744 -42.2984 489.752 -42.0624C489.505 -42.0033 489.371 -41.4641 489.199 -41.0849C489.237 -40.9249 489.809 -40.7228 490.057 -40.7818C491.793 -41.1949 493.738 -41.8271 495.416 -41.3808C495.702 -41.2798 496.617 -41.836 496.827 -42.0551C497.704 -42.7714 498.41 -43.1085 499.306 -42.6453C499.592 -42.5442 499.382 -42.3251 500.126 -42.5022C500.622 -42.6202 501.327 -42.9574 501.899 -42.7553C502.185 -42.6542 502.509 -42.3931 503.005 -42.5111C504.988 -42.9833 507.219 -43.5144 509.203 -43.9866C509.203 -43.9866 509.374 -44.3657 509.336 -44.5258C507.811 -44.3318 508.669 -46.2276 506.476 -45.5364C502.777 -45.6706 502.777 -45.6706 498.791 -43.7068C498.543 -43.6478 497.838 -43.3106 497.552 -43.4117C496.083 -44.0771 494.424 -43.3438 499.039 -41.5668C499.248 -41.7859 499.496 -41.8449 499.706 -42.064L499.63 -42.3842L499.134 -42.2661C498.924 -42.047 498.715 -41.8279 498.753 -41.6679C498.829 -41.3477 499.115 -41.2467 492.975 -42.8296ZM623.055 -13.5817C622.597 -13.3036 622.426 -12.9244 621.968 -12.6463C621.758 -12.4272 621.758 -12.4272 621.548 -12.2081C621.167 -11.6099 621.567 -11.0286 622.807 -11.3237C624.084 -11.4587 624.408 -11.1976 624.275 -10.6583C623.931 -9.89999 623.34 -9.08264 622.749 -8.26528C622.177 -8.4674 621.643 -8.50943 621.319 -8.77057C620.785 -8.8126 620.499 -8.91366 619.927 -9.11577C619.088 -8.2394 618.211 -7.5231 617.581 -6.86582C617.371 -6.64673 617.2 -6.26756 617.486 -6.16651C618.096 -5.80432 618.706 -5.44214 619.526 -5.29904C619.812 -5.19799 620.765 -5.59413 621.223 -5.87225C621.891 -6.36945 622.31 -6.80763 622.73 -7.24582C623.149 -7.684 624.389 -7.9791 624.599 -8.19819C625.018 -8.63637 624.656 -9.05758 625.285 -9.71486C625.953 -10.2121 626.048 -10.9114 626.182 -11.4506C626.525 -12.209 626.735 -12.428 625.877 -12.7312C625.019 -13.0344 624.161 -13.3376 623.055 -13.5817ZM344.36 47.0173C344.398 47.1773 344.646 47.1183 344.932 47.2194C346.457 47.0253 347.983 46.8313 349.603 45.938C351.434 44.8255 353.017 43.7721 355.286 43.401C356.812 43.207 357.117 42.2885 357.746 41.6313C357.956 41.4122 357.632 41.1511 357.346 41.05C356.812 41.008 355.782 41.084 355.782 41.084C354.276 42.4575 352.979 43.612 350.176 43.9411C349.051 44.7164 347.64 45.3906 345.904 45.8038C345.122 45.8207 344.779 46.5791 344.36 47.0173ZM802.4 -49.1747C802.114 -49.2758 801.828 -49.3768 801.294 -49.4189C799.902 -49.7641 799.902 -49.7641 798.319 -48.7106C797.404 -48.1544 797.156 -48.0954 796.088 -48.1795C795.554 -48.2215 795.401 -48.8618 794.81 -48.0445C793.971 -47.1681 792.693 -47.0331 791.416 -46.898C791.168 -46.839 790.844 -47.1002 790.31 -47.1422C790.062 -47.0832 789.566 -46.9651 789.604 -46.8051C789.681 -46.4849 789.833 -45.8446 790.081 -45.9036C791.358 -46.0387 792.598 -46.3338 793.59 -46.5698C794.581 -46.8059 795.382 -45.6433 796.355 -47.059C796.774 -47.4971 797.804 -47.5731 798.376 -47.371C799.234 -47.0679 800.225 -47.3039 800.855 -47.9612C801.77 -48.5174 802.19 -48.9556 802.4 -49.1747ZM510.997 -54.0551C511.207 -54.2742 511.378 -54.6534 511.34 -54.8134C511.226 -55.2937 511.569 -56.052 510.539 -55.976C508.976 -55.942 507.202 -55.689 505.906 -54.5345C505.028 -53.8182 504.285 -53.6411 503.388 -54.1044C502.816 -54.3065 502.816 -54.3065 502.397 -53.8683C501.977 -53.4301 501.558 -52.9919 501.176 -52.3937C500.966 -52.1746 501.291 -51.9135 501.577 -51.8124C501.901 -51.5513 502.11 -51.7704 502.568 -52.0485C503.026 -52.3266 503.445 -52.7648 503.941 -52.8828C506.21 -53.2539 508.251 -54.5854 510.501 -53.9371C510.749 -53.9961 511.035 -53.895 510.997 -54.0551ZM305.558 28.1763C306.092 28.2183 306.741 28.7406 307.77 28.6646C309.296 28.4706 310.745 27.9564 312.233 27.6023C312.976 27.4252 313.396 26.987 313.072 26.7259C313.034 26.5658 312.709 26.3047 312.423 26.2036C310.612 26.2966 309.01 26.1705 307.408 26.0444C306.875 26.0023 306.589 25.9013 306.417 26.2805C306.035 26.8787 305.902 27.418 305.558 28.1763ZM518.373 -37.3742C516.848 -37.1802 515.646 -36.725 515.913 -35.6045C515.951 -35.4444 514.96 -35.2083 514.502 -34.9302C514.254 -34.8712 514.082 -34.4921 514.121 -34.332C514.121 -34.332 514.407 -34.2309 514.654 -34.2899C515.398 -34.467 516.676 -34.602 517.133 -34.8801C518.144 -36.1357 519.956 -36.2286 521.443 -36.5827C521.939 -36.7008 522.683 -36.8778 523.178 -36.9959C523.426 -37.0549 523.598 -37.4341 523.56 -37.5941C523.56 -37.5941 523.236 -37.8553 523.026 -37.6362C521.081 -37.004 520.032 -38.1075 518.373 -37.3742ZM524.916 -48.404C524.801 -48.8843 524.897 -49.5836 524.573 -49.8447C524.001 -50.0468 522.723 -49.9118 521.903 -50.0549C521.369 -50.0969 521.045 -50.3581 520.473 -50.5602C520.187 -50.6612 519.939 -50.6022 519.691 -50.5432C519.768 -50.223 519.386 -49.6248 519.672 -49.5237C520.568 -49.0605 521.636 -48.9764 522.532 -48.5132C523.104 -48.311 523.104 -48.3111 522.589 -47.1736C522.379 -46.9545 522.494 -46.4742 522.742 -46.5333C523.275 -46.4912 523.809 -46.4492 524.343 -46.4071C524.591 -46.4662 525.297 -46.8033 525.259 -46.9634C525.144 -47.4436 525.03 -47.9238 524.916 -48.404ZM577.355 -56.9981C576.783 -57.2002 575.963 -57.3433 575.639 -57.6045C574.095 -58.59 571.94 -57.7387 569.957 -57.2665C569.709 -57.2075 569.537 -56.8283 569.575 -56.6683C569.652 -56.3481 570.014 -55.9269 570.51 -56.0449C571.539 -56.1209 572.417 -56.8372 573.313 -56.374C574.743 -55.8687 575.944 -56.3239 577.355 -56.9981ZM510.652 -46.6998C512.616 -46.1524 512.616 -46.1524 513.646 -46.2284C514.39 -46.4055 515.133 -46.5825 515.953 -46.4394C516.811 -46.1363 518.508 -46.7095 519.157 -46.1872C519.366 -46.4063 519.824 -46.6844 519.786 -46.8445C519.71 -47.1646 519.348 -47.5859 519.062 -47.6869C518.07 -47.4508 517.536 -47.4929 516.716 -47.636C515.858 -47.9391 514.905 -47.543 513.837 -47.6271C513.265 -47.8292 511.777 -47.4751 510.652 -46.6998ZM285.266 50.7679C284.274 51.004 283.283 51.2401 282.291 51.4761C282.043 51.5352 281.91 52.0744 281.738 52.4536C281.776 52.6136 282.1 52.8748 282.348 52.8158C283.835 52.4616 285.323 52.1075 286.562 51.8124C287.554 51.5764 287.687 51.0371 288.355 50.5399C288.565 50.3208 288.527 50.1608 288.736 49.9417C288.736 49.9417 288.45 49.8406 288.202 49.8996C287.249 50.2958 286.257 50.5318 285.266 50.7679ZM828.011 -61.5305C827.801 -61.3114 827.801 -61.3114 827.591 -61.0923C828.945 -60.9071 829.955 -59.9637 831.729 -60.2167C831.977 -60.2757 832.434 -60.5539 832.644 -60.7729C833.312 -61.2702 832.873 -62.0115 832.129 -61.8345C830.89 -61.5394 830.07 -61.6825 830.165 -62.3818C830.051 -62.862 829.937 -63.3422 829.823 -63.8224C829.784 -63.9825 829.25 -64.0246 829.003 -63.9655C829.003 -63.9655 828.545 -63.6874 828.583 -63.5273C828.449 -62.9881 829.136 -62.3058 828.011 -61.5305ZM507.809 -33.3367C509.544 -33.7499 509.544 -33.7499 509.563 -34.7693C509.297 -35.8899 509.258 -36.0499 507.275 -35.5778C505.54 -35.1647 505.54 -35.1647 505.521 -34.1452C505.787 -33.0247 506.073 -32.9236 507.809 -33.3367ZM358.491 34.8572C357.748 35.0343 356.756 35.2703 356.012 35.4474C354.525 35.8015 354.181 36.5598 353.838 37.3182C353.628 37.5373 354.277 38.0595 354.772 37.9415C355.306 37.9835 355.726 37.5453 356.47 37.3683C356.47 37.3683 356.679 37.1492 356.641 36.9891C356.527 36.5089 356.661 35.9696 357.69 35.8936C358.682 35.6576 359.673 35.4215 360.665 35.1854C360.913 35.1264 361.123 34.9073 361.123 34.9073C361.085 34.7472 360.76 34.4861 360.513 34.5451C359.731 34.5621 359.235 34.6801 358.491 34.8572ZM628.612 -59.5595C627.754 -59.8627 627.086 -59.3655 626.304 -59.3485C625.275 -59.2725 624.455 -59.4156 623.425 -59.3396C623.177 -59.2806 622.719 -59.0025 622.472 -58.9434L622.51 -58.7834C623.616 -58.5392 624.512 -58.076 625.58 -57.9919C626.4 -57.8488 627.105 -58.1859 627.773 -58.6831C627.773 -58.6831 628.192 -59.1213 628.612 -59.5595ZM810.198 -48.325C810.37 -48.7042 810.256 -49.1844 810.466 -49.4035C810.637 -49.7827 811.343 -50.1198 811.267 -50.44C811.114 -51.0803 809.951 -50.465 809.417 -50.5071C807.815 -50.6332 807.815 -50.6332 806.728 -49.6978L806.518 -49.4787C807.701 -48.9144 808.807 -48.6703 810.198 -48.325ZM358.07 46.2904C357.574 46.4084 356.83 46.5855 356.868 46.7456C356.239 47.4028 355.247 47.6389 354.332 48.1952C354.084 48.2542 354.122 48.4142 354.16 48.5743C354.199 48.7344 354.446 48.6754 354.732 48.7764C354.98 48.7174 355.228 48.6584 355.228 48.6584C356.182 48.2623 357.154 49.0456 357.364 48.8265C358.317 48.4304 358.661 47.6721 359.938 47.5371C359.938 47.5371 360.11 47.1579 360.072 46.9978C359.214 46.6946 358.642 46.4925 358.07 46.2904ZM673.382 -47.5525C673.802 -47.9907 674.012 -48.2097 674.431 -48.6479C674.641 -48.867 674.641 -48.867 674.851 -49.0861C675.232 -49.6844 674.584 -50.2066 673.593 -49.9706C673.097 -49.8525 672.849 -49.7935 672.353 -49.6755C671.361 -49.4394 670.77 -48.622 671.38 -48.2599C671.952 -48.0577 672.524 -47.8556 673.382 -47.5525ZM633.246 -61.001C632.75 -60.883 632.502 -60.824 632.006 -60.7059C631.262 -60.5289 630.671 -59.7115 631.281 -59.3493C631.605 -59.0882 632.139 -59.0462 632.711 -58.844C633.283 -58.6419 633.531 -58.7009 633.951 -59.1391C634.37 -59.5773 634.58 -59.7964 635 -60.2346C635.419 -60.6728 634.523 -61.136 633.78 -60.959C633.741 -61.1191 633.494 -61.06 633.246 -61.001ZM706.806 -27.093C708.408 -26.9668 708.35 -26.1074 708.541 -25.3071C708.617 -24.9869 710.181 -25.0209 710.6 -25.4591C710.81 -25.6782 711.191 -26.2764 710.867 -26.5376C710.257 -26.8997 709.189 -26.9838 709.285 -27.6831C709.247 -27.8432 708.217 -27.7672 707.721 -27.6492C707.435 -27.7502 707.016 -27.312 706.806 -27.093ZM409.375 -19.882C408.384 -19.646 407.392 -19.4099 406.4 -19.1738C406.153 -19.1148 405.771 -18.5165 405.847 -18.1964C405.962 -17.7162 407.277 -17.6911 407.697 -18.1293C408.498 -19.1657 409.985 -19.5198 411.263 -19.6549C411.511 -19.7139 411.721 -19.933 411.721 -19.933C411.683 -20.093 411.358 -20.3542 411.111 -20.2952C410.615 -20.1771 410.119 -20.0591 409.375 -19.882ZM527.395 -48.9942C528.501 -48.7501 529.359 -48.4469 530.503 -48.0427C531.075 -47.8406 531.075 -47.8406 531.456 -48.4388C531.475 -49.4583 531.037 -50.1997 528.901 -50.3678C528.444 -50.0897 528.062 -49.4914 527.395 -48.9942ZM386.386 49.698C385.566 49.5549 384.994 49.3527 384.212 49.3697C383.716 49.4878 383.049 49.985 382.343 50.3221C382.095 50.3811 381.847 50.4401 381.847 50.4401C381.638 50.6592 381.428 50.8783 381.218 51.0974C381.504 51.1985 382 51.0804 382.286 51.1815C382.534 51.1225 382.782 51.0635 382.782 51.0635C384.879 51.0715 384.879 51.0715 386.386 49.698ZM717.771 -30.5492C717.485 -30.6502 717.485 -30.6502 717.237 -30.5912C716.741 -30.4731 715.959 -30.4562 715.463 -30.3381C714.224 -30.043 714.014 -29.8239 714.243 -28.8635C714.319 -28.5434 714.643 -28.2822 714.796 -27.6419C716.092 -28.7964 716.932 -29.6728 717.771 -30.5492ZM289.805 47.8267C289.843 47.9868 289.843 47.9868 289.881 48.1469C290.033 48.7872 290.033 48.7872 291.197 48.1719C291.902 47.8348 292.608 47.4977 293.065 47.2196C293.275 47.0005 293.409 46.4612 293.333 46.1411C293.008 45.8799 292.474 45.8379 292.093 46.4362C291.673 46.8744 291.426 46.9334 290.854 46.7313C290.282 46.5291 289.786 46.6472 289.614 47.0264C289.69 47.3465 289.728 47.5066 289.805 47.8267ZM508.651 -51.8051C507.907 -51.6281 506.916 -51.392 506.172 -51.215C505.924 -51.1559 506 -50.8358 505.79 -50.6167C505.79 -50.6167 506.076 -50.5157 506.324 -50.5747C507.068 -50.7517 508.06 -50.9878 508.803 -51.1649C510.863 -51.3169 510.863 -51.3169 511.53 -51.8141C511.74 -52.0332 511.988 -52.0922 511.988 -52.0922C511.702 -52.1932 511.626 -52.5134 511.378 -52.4544C510.386 -52.2183 509.643 -52.0412 508.651 -51.8051ZM291.706 77.8205C290.81 77.3573 289.189 78.2506 288.503 77.5683C288.293 77.7874 287.797 77.9054 287.835 78.0655C287.626 78.2846 287.95 78.5457 287.988 78.7058C288.102 79.186 287.968 79.7253 289.246 79.5902C289.742 79.4722 290.2 79.1941 290.657 78.916C291.077 78.4778 291.249 78.0986 291.706 77.8205ZM470.519 33.3894C470.728 33.1704 471.148 32.7322 471.072 32.412C470.633 31.6707 469.241 31.3255 468.002 31.6205C467.754 31.6796 467.296 31.9577 467.086 32.1768C468.402 32.2018 468.345 33.0612 469.203 33.3644C469.241 33.5245 469.737 33.4064 470.519 33.3894ZM542.321 -22.6086C542.073 -22.5496 541.825 -22.4906 541.825 -22.4906C541.081 -22.3135 540.624 -22.0354 540.7 -21.7153C540.776 -21.3951 541.138 -20.9739 541.386 -21.033C541.634 -21.092 542.626 -21.328 542.835 -21.5471C543.293 -21.8252 543.713 -22.2634 543.884 -22.6426C543.884 -22.6426 543.522 -23.0638 543.274 -23.0048C543.312 -22.8447 542.817 -22.7267 542.321 -22.6086ZM364.041 32.8595C363.793 32.9185 363.545 32.9775 363.545 32.9775C363.297 33.0365 362.839 33.3147 362.591 33.3737C362.877 33.4747 362.915 33.6348 363.201 33.7359C363.773 33.938 364.059 34.039 364.593 34.0811C364.879 34.1821 365.623 34.0051 365.833 33.786C366.043 33.5669 366.176 33.0276 366.386 32.8085C366.348 32.6485 366.024 32.3873 365.776 32.4464C364.994 32.4633 364.536 32.7415 364.041 32.8595ZM323.821 56.4739C324.927 56.718 325.671 56.541 326.3 55.8837C326.93 55.2264 327.845 54.6702 327.197 54.1479C327.159 53.9879 326.377 54.0048 326.377 54.0048C325.538 54.8812 324.66 55.5975 323.821 56.4739ZM536.222 -39.4245C536.718 -39.5426 537.461 -39.7196 537.957 -39.8377C538.205 -39.8967 538.377 -40.2758 538.339 -40.4359C538.339 -40.4359 538.053 -40.537 537.805 -40.478C537.271 -40.52 536.565 -40.1829 536.241 -40.444C535.059 -41.0083 534.716 -40.25 534.048 -39.7528C533.838 -39.5337 533.876 -39.3736 533.667 -39.1545C533.953 -39.0534 534.448 -39.1715 534.696 -39.2305C535.516 -39.0874 535.974 -39.3655 536.222 -39.4245ZM376.816 35.9073C377.064 35.8483 377.807 35.6712 378.265 35.3931C378.475 35.174 378.361 34.6938 378.532 34.3147L377.75 34.3316C377.369 34.9299 376.13 35.225 375.424 35.5621C375.176 35.6211 375.214 35.7812 375.214 35.7812C375.252 35.9413 375.5 35.8823 375.748 35.8232C375.786 35.9833 376.034 35.9243 376.816 35.9073ZM523.372 -53.7875C523.162 -53.5685 522.705 -53.2903 522.743 -53.1303C522.609 -52.591 523.181 -52.3889 524.211 -52.4649C524.955 -52.642 525.164 -52.8611 525.298 -53.4003C525.184 -53.8805 524.612 -54.0826 523.372 -53.7875ZM556.132 -54.8209C555.14 -54.5848 554.397 -54.4077 553.901 -54.2897C553.653 -54.2307 553.195 -53.9526 552.985 -53.7335C553.271 -53.6324 553.805 -53.5904 554.053 -53.6494C555.293 -53.9445 556.532 -54.2396 557.734 -54.6948C557.981 -54.7538 558.191 -54.9729 558.191 -54.9729C558.191 -54.9729 557.905 -55.0739 557.657 -55.0149C556.914 -54.8378 556.17 -54.6608 556.132 -54.8209ZM345.314 40.0241C345.505 40.8245 346.039 40.8665 347.03 40.6304C347.774 40.4534 347.946 40.0742 347.869 39.7541C347.755 39.2738 347.183 39.0717 346.229 39.4679C345.734 39.5859 345.314 40.0241 345.314 40.0241ZM814.474 -74.3768C814.017 -74.0987 813.845 -73.7195 813.387 -73.4414C813.177 -73.2223 813.006 -72.8431 813.006 -72.8431C813.578 -72.641 814.15 -72.4389 814.97 -72.2958C814.97 -72.2958 815.179 -72.5149 815.427 -72.5739C815.523 -73.2733 815.828 -74.1917 814.474 -74.3768ZM557.373 -63.912C557.487 -63.4318 558.517 -63.5078 558.841 -63.2466C558.879 -63.0866 559.127 -63.1456 559.413 -63.0445C559.623 -63.2636 559.833 -63.4827 559.794 -63.6428C559.852 -64.5022 559.032 -64.6453 557.831 -64.1901C557.583 -64.1311 557.583 -64.1311 557.373 -63.912ZM379.464 52.53C379.006 52.8081 378.262 52.9852 377.804 53.2633L377.843 53.4234C378.662 53.5665 380.646 53.0943 381.065 52.6561L381.027 52.496C380.531 52.6141 379.997 52.5721 379.464 52.53ZM370.044 52.5737C369.834 52.7928 369.376 53.0709 369.624 53.0119C369.7 53.332 369.815 53.8123 370.349 53.8543C370.635 53.9554 371.34 53.6182 371.836 53.5002C372.084 53.4412 372.294 53.2221 372.294 53.2221C371.474 53.079 370.902 52.8769 370.044 52.5737ZM593.401 -0.601807C593.687 -0.500749 594.011 -0.239617 594.336 0.0215156C594.622 0.122573 595.117 0.00453206 595.575 -0.273576C596.281 -0.610707 595.957 -0.871833 595.385 -1.07395C595.099 -1.17501 594.813 -1.27606 594.526 -1.37712C594.279 -1.3181 594.24 -1.47817 593.993 -1.41916C593.783 -1.20006 593.573 -0.980972 593.401 -0.601807ZM631.139 -10.432C631.387 -10.491 631.425 -10.3309 631.673 -10.3899C632.169 -10.508 632.913 -10.685 633.085 -11.0642C633.294 -11.2833 632.932 -11.7045 632.856 -12.0247C632.818 -12.1847 632.57 -12.1257 632.322 -12.0667C632.322 -12.0667 631.063 -10.7521 631.139 -10.432ZM460.585 27.9736C460.871 28.0747 460.909 28.2347 461.233 28.4959C461.481 28.4369 461.691 28.2178 461.939 28.1587C462.148 27.9397 462.358 27.7206 462.568 27.5015C462.816 27.4425 462.778 27.2824 462.988 27.0633C462.702 26.9622 462.168 26.9202 461.92 26.9792C460.928 27.2153 460.718 27.4344 460.585 27.9736ZM391.483 14.9933C391.025 15.2714 391.063 15.4315 391.597 15.4735C391.883 15.5746 392.169 15.6756 392.703 15.7177C392.989 15.8187 393.237 15.7597 393.485 15.7007C393.657 15.3215 393.828 14.9423 393.504 14.6812C393.428 14.3611 392.151 14.4961 391.483 14.9933ZM528.425 -53.4682C528.635 -53.6873 528.883 -53.7463 528.845 -53.9064C528.769 -54.2266 528.902 -54.7658 528.616 -54.8669C528.33 -54.9679 527.586 -54.7909 527.052 -54.8329C526.805 -54.7739 526.633 -54.3947 526.671 -54.2346C527.033 -53.8134 527.605 -53.6113 528.425 -53.4682ZM284.498 82.7505C284.707 82.5314 284.955 82.4724 284.669 82.3713C284.593 82.0512 284.479 81.571 283.945 81.5289C283.659 81.4279 282.953 81.765 282.457 81.883C282.209 81.9421 282 82.1612 282 82.1612C282.324 82.4223 284.25 82.8095 284.498 82.7505ZM738.842 -35.5657C739.872 -35.6417 740.406 -35.5997 741.15 -35.7767C741.397 -35.8357 741.855 -36.1139 742.065 -36.3329C741.779 -36.434 741.245 -36.476 740.997 -36.417C740.253 -36.24 739.796 -35.9619 738.842 -35.5657ZM410.585 44.6135C409.879 44.9506 410.069 45.751 410.851 45.734C410.851 45.734 411.099 45.675 411.347 45.616C412.053 45.2788 411.862 44.4785 411.08 44.4954C410.832 44.5545 410.832 44.5545 410.585 44.6135ZM266.478 80.782C267.508 80.706 268.042 80.748 268.786 80.571C269.033 80.5119 269.491 80.2338 269.701 80.0147C269.415 79.9137 268.881 79.8716 268.633 79.9307C268.137 80.0487 267.68 80.3268 266.478 80.782ZM611.287 -0.29304C611.535 -0.352056 611.535 -0.352063 611.783 -0.41108C612.451 -0.908283 612.05 -1.48956 611.517 -1.5316C611.517 -1.5316 611.269 -1.47258 611.021 -1.41356C610.315 -1.07643 610.468 -0.436134 611.287 -0.29304ZM285.814 78.3776C285.909 77.6782 286.081 77.2991 286.005 76.9789C285.967 76.8189 285.433 76.7768 285.395 76.6167C285.185 76.8358 284.975 77.0549 285.013 77.215C285.09 77.5351 285.414 77.7963 285.814 78.3776ZM593.624 -73.3881C593.338 -73.4891 593.013 -73.7502 592.689 -74.0114C592.518 -73.6322 592.346 -73.253 592.422 -72.9329C592.46 -72.7728 592.994 -72.7308 593.032 -72.5707C592.956 -72.8908 593.166 -73.1099 593.624 -73.3881ZM540.115 -58.281C540.153 -58.1209 540.153 -58.1209 540.153 -58.1209C540.725 -57.9188 541.965 -58.2139 542.136 -58.5931L542.098 -58.7532C541.526 -58.9553 540.287 -58.6602 540.115 -58.281ZM584.222 -67.7668C584.546 -67.5057 585.785 -67.8008 586.205 -68.239L586.167 -68.399C585.843 -68.6602 584.603 -68.3651 584.184 -67.9269C584.184 -67.9269 584.184 -67.9269 584.222 -67.7668ZM492.363 -29.9978C492.687 -29.7366 493.926 -30.0317 494.346 -30.4699L494.308 -30.63C493.984 -30.8911 492.744 -30.596 492.325 -30.1578L492.363 -29.9978ZM544.002 -41.9534C543.544 -41.6753 543.049 -41.5573 542.839 -41.3382L542.877 -41.1781C543.449 -40.976 544.688 -41.2711 544.86 -41.6503C544.822 -41.8103 544.288 -41.8524 544.002 -41.9534ZM684.027 -73.2598C684.351 -72.9987 685.591 -73.2938 686.01 -73.732L685.972 -73.8921C685.648 -74.1532 684.408 -73.8581 683.989 -73.4199C683.989 -73.4199 683.989 -73.4199 684.027 -73.2598ZM777.198 -89.0138C777.408 -89.2329 778.113 -89.57 777.827 -89.6711C777.503 -89.9322 776.264 -89.6371 775.844 -89.1989L775.882 -89.0388C776.378 -89.1569 776.664 -89.0558 777.198 -89.0138ZM378.242 60.6017C377.784 60.8798 377.288 60.9978 377.078 61.2169L377.117 61.377C377.689 61.5791 378.928 61.284 379.1 60.9048C379.31 60.6857 378.49 60.5426 378.242 60.6017ZM424.593 -24.1815C424.802 -24.4006 425.508 -24.7377 425.222 -24.8387C424.898 -25.0999 423.658 -24.8048 423.239 -24.3666L423.277 -24.2065C423.563 -24.1055 423.811 -24.1645 424.593 -24.1815ZM542.841 -52.3332C542.383 -52.0551 541.887 -51.9371 541.677 -51.718L541.716 -51.5579C542.288 -51.3558 543.527 -51.6509 543.699 -52.03C543.661 -52.1901 543.127 -52.2321 542.841 -52.3332ZM369.876 30.9628C369.914 31.1229 369.914 31.1229 369.952 31.283C370.524 31.4851 371.764 31.19 371.935 30.8108L371.897 30.6507C371.249 30.1285 370.009 30.4236 369.876 30.9628ZM374.262 29.5803C374.052 29.7994 373.556 29.9175 373.346 30.1366C373.632 30.2376 374.166 30.2797 374.414 30.2206C374.91 30.1026 375.368 29.8245 375.825 29.5464C375.33 29.6644 374.796 29.6224 374.262 29.5803ZM835.069 -80.2948C835.393 -80.0337 835.431 -79.8736 835.717 -79.7725C835.717 -79.7725 835.965 -79.8315 836.213 -79.8906C836.881 -80.3878 836.728 -81.0281 835.946 -81.0111C835.451 -80.893 835.317 -80.3538 835.069 -80.2948ZM827.899 -77.4037C827.937 -77.2436 827.937 -77.2436 827.937 -77.2436C828.509 -77.0415 829.749 -77.3366 829.92 -77.7158L829.882 -77.8759C829.558 -78.137 828.319 -77.8419 827.899 -77.4037ZM819.355 -69.2803C819.393 -69.1202 819.393 -69.1202 819.431 -68.9602C820.003 -68.758 821.243 -69.0531 821.414 -69.4323C821.414 -69.4323 821.376 -69.5924 821.338 -69.7524C820.766 -69.9546 819.527 -69.6595 819.355 -69.2803ZM468.479 25.925C468.804 26.1861 470.043 25.891 470.463 25.4528L470.425 25.2927C470.1 25.0316 468.861 25.3267 468.441 25.7649C468.193 25.8239 468.441 25.7649 468.479 25.925ZM531.274 11.3135C531.484 11.0944 532.19 10.7573 531.904 10.6562C531.58 10.3951 530.34 10.6902 529.921 11.1283L529.959 11.2884C530.454 11.1704 530.74 11.2714 531.274 11.3135ZM555.416 4.88937C555.206 5.10847 555.206 5.10847 554.996 5.32756C555.283 5.42862 555.283 5.42861 555.53 5.3696C555.778 5.31058 556.312 5.35261 556.808 5.23458C557.056 5.17556 557.514 4.89745 557.723 4.67836C557.437 4.5773 557.151 4.47625 556.656 4.59428C556.122 4.55224 555.626 4.67028 555.416 4.88937ZM598.302 -3.12178C598.512 -3.34088 599.218 -3.67801 598.932 -3.77906C598.608 -4.0402 597.368 -3.7451 596.949 -3.30692L596.987 -3.14684C597.482 -3.26487 597.768 -3.16383 598.302 -3.12178ZM693.744 -25.8438C694.201 -26.122 694.659 -26.4001 695.117 -26.6782C694.583 -26.7202 694.049 -26.7622 693.553 -26.6442C693.305 -26.5852 692.848 -26.3071 692.638 -26.088C692.676 -25.9279 693.21 -25.8859 693.744 -25.8438ZM381.712 61.9744C381.96 61.9154 382.17 61.6963 382.17 61.6963C382.132 61.5362 381.846 61.4352 381.56 61.3341C381.312 61.3931 381.102 61.6122 381.102 61.6122C381.388 61.7133 381.426 61.8733 381.712 61.9744ZM376.202 59.7342C375.916 59.6331 375.916 59.6331 375.63 59.5321C375.42 59.7512 375.458 59.9112 375.248 60.1303C375.248 60.1303 375.534 60.2314 375.782 60.1724C376.03 60.1134 376.24 59.8943 376.202 59.7342ZM427.994 46.2198C428.28 46.3209 428.28 46.3209 428.566 46.4219C428.776 46.2028 428.737 46.0428 428.947 45.8237C428.947 45.8237 428.661 45.7226 428.413 45.7816C428.165 45.8407 428.204 46.0007 427.994 46.2198ZM404.749 48.7091C405.035 48.8102 405.035 48.8102 405.321 48.9113C405.531 48.6922 405.493 48.5321 405.702 48.313C405.702 48.313 405.416 48.2119 405.168 48.271C404.921 48.33 404.711 48.5491 404.749 48.7091ZM269.778 78.1359C269.568 78.355 269.568 78.355 269.358 78.5741C269.644 78.6751 269.892 78.6161 270.14 78.5571C270.14 78.5571 270.35 78.338 270.597 78.279C270.311 78.1779 270.064 78.2369 269.778 78.1359ZM541.437 13.2917C541.647 13.0726 541.895 13.0136 542.105 12.7945C541.819 12.6935 541.819 12.6935 541.571 12.7525C541.323 12.8115 541.113 13.0306 540.865 13.0896C541.151 13.1907 541.151 13.1907 541.437 13.2917ZM699.026 -26.7631C699.312 -26.662 699.312 -26.662 699.598 -26.561C699.808 -26.7801 699.77 -26.9401 699.979 -27.1592C699.979 -27.1592 699.693 -27.2603 699.445 -27.2013C699.198 -27.1422 699.236 -26.9822 699.026 -26.7631ZM413.198 41.285C413.484 41.3861 413.484 41.3861 413.731 41.3271C413.979 41.2681 414.189 41.049 414.437 40.99C414.189 41.049 414.151 40.8889 413.903 40.9479C413.903 40.9479 413.655 41.0069 413.198 41.285ZM317.146 63.6449C317.356 63.4258 317.356 63.4258 317.566 63.2067C317.28 63.1057 317.032 63.1647 316.784 63.2237C316.784 63.2237 316.574 63.4428 316.326 63.5018C316.612 63.6029 316.86 63.5439 317.146 63.6449ZM492.812 20.3012C493.06 20.2422 493.269 20.0231 493.269 20.0231C493.231 19.8631 492.945 19.762 492.659 19.6609C492.45 19.88 492.202 19.9391 492.202 19.9391C492.24 20.0991 492.526 20.2002 492.812 20.3012ZM388.618 44.7688C388.332 44.6677 388.332 44.6677 388.046 44.5667C387.836 44.7858 387.874 44.9458 387.664 45.1649C387.664 45.1649 387.95 45.266 388.198 45.207C388.408 44.9879 388.618 44.7688 388.618 44.7688ZM614.016 -9.73826C614.302 -9.6372 614.34 -9.47714 614.626 -9.37608C614.874 -9.4351 615.084 -9.65419 615.084 -9.65419C615.046 -9.81426 614.76 -9.91532 614.474 -10.0164C614.226 -9.95736 614.226 -9.95735 614.016 -9.73826ZM498.285 17.9834C498.571 18.0844 498.571 18.0844 498.857 18.1855C499.067 17.9664 499.029 17.8063 499.238 17.5872C499.238 17.5872 498.952 17.4862 498.704 17.5452C498.457 17.6042 498.495 17.7643 498.285 17.9834ZM574.981 -0.952606C575.267 -0.851548 575.267 -0.851557 575.553 -0.750499C575.763 -0.969591 575.725 -1.12967 575.935 -1.34876C575.935 -1.34876 575.649 -1.44981 575.401 -1.3908C575.153 -1.33178 574.943 -1.11268 574.981 -0.952606ZM556.141 3.53278C556.427 3.63384 556.427 3.63383 556.713 3.73489C556.923 3.5158 556.885 3.35573 557.094 3.13663C557.094 3.13663 556.808 3.03558 556.561 3.0946C556.313 3.15361 556.103 3.3727 556.141 3.53278ZM377.405 46.085C377.691 46.1861 377.691 46.1861 377.977 46.2871C378.187 46.068 378.149 45.9079 378.359 45.6888C378.359 45.6888 378.073 45.5878 377.825 45.6468C377.577 45.7058 377.615 45.8659 377.405 46.085ZM644.908 -18.6152C644.622 -18.7163 644.622 -18.7163 644.336 -18.8174C644.126 -18.5983 644.165 -18.4382 643.955 -18.2191C643.955 -18.2191 644.241 -18.118 644.489 -18.1771C644.489 -18.1771 644.698 -18.3961 644.908 -18.6152ZM834.456 -65.2639C834.17 -65.365 834.17 -65.365 833.884 -65.4661C833.675 -65.247 833.713 -65.0869 833.503 -64.8678C833.503 -64.8678 833.789 -64.7667 834.037 -64.8258C834.285 -64.8848 834.247 -65.0448 834.456 -65.2639ZM388.561 41.2302C388.771 41.0111 389.019 40.9521 389.229 40.733C388.981 40.792 388.943 40.6319 388.695 40.6909C388.447 40.7499 388.237 40.969 387.989 41.0281C388.275 41.1291 388.313 41.2892 388.561 41.2302ZM819.811 -62.9614C820.021 -63.1805 820.269 -63.2395 820.479 -63.4586C820.193 -63.5597 820.193 -63.5597 819.945 -63.5006C819.697 -63.4416 819.487 -63.2225 819.239 -63.1635C819.278 -63.0034 819.564 -62.9024 819.811 -62.9614ZM361.407 46.0034C361.693 46.1044 361.693 46.1044 361.979 46.2055C362.189 45.9864 362.151 45.8263 362.36 45.6072C362.36 45.6072 362.074 45.5062 361.826 45.5652C361.579 45.6242 361.617 45.7843 361.407 46.0034ZM367.414 43.7276C367.662 43.6685 367.7 43.8286 367.948 43.7696C368.196 43.7106 368.405 43.4915 368.653 43.4325C368.405 43.4915 368.367 43.3314 368.119 43.3904C367.871 43.4495 367.662 43.6685 367.414 43.7276ZM339.573 47.8185C339.363 48.0376 339.363 48.0376 339.154 48.2567C339.44 48.3577 339.688 48.2987 339.935 48.2397C339.935 48.2397 340.145 48.0206 340.393 47.9616C340.107 47.8605 339.859 47.9195 339.573 47.8185ZM275.615 63.0452C275.863 62.9862 276.073 62.7671 276.073 62.7671C276.035 62.607 275.749 62.5059 275.463 62.4049C275.215 62.4639 275.005 62.683 275.005 62.683C275.291 62.7841 275.329 62.9441 275.615 63.0452ZM277.846 60.315C277.637 60.5341 277.389 60.5931 277.179 60.8122C277.465 60.9133 277.465 60.9133 277.713 60.8543C277.961 60.7952 278.171 60.5761 278.419 60.5171C278.133 60.4161 277.846 60.315 277.846 60.315ZM369.703 37.939C369.417 37.8379 369.379 37.6779 369.093 37.5768C368.883 37.7959 368.635 37.8549 368.635 37.8549C368.673 38.015 368.959 38.1161 369.245 38.2171C369.531 38.3182 369.741 38.0991 369.703 37.939ZM369.818 36.2202C370.104 36.3213 370.142 36.4814 370.428 36.5824C370.676 36.5234 370.886 36.3043 370.886 36.3043C370.847 36.1442 370.561 36.0432 370.275 35.9421C370.027 36.0011 369.818 36.2202 369.818 36.2202ZM800.286 -67.9544C800.076 -67.7353 799.829 -67.6762 799.619 -67.4572C799.867 -67.5162 799.905 -67.3561 800.153 -67.4151C800.401 -67.4741 800.61 -67.6932 800.858 -67.7522C800.572 -67.8533 800.572 -67.8533 800.286 -67.9544ZM809.802 -70.8964C809.592 -70.6773 809.592 -70.6773 809.382 -70.4582C809.63 -70.5172 809.916 -70.4162 810.164 -70.4752C810.164 -70.4752 810.374 -70.6943 810.622 -70.7533C810.336 -70.8543 810.05 -70.9554 809.802 -70.8964ZM784.364 -65.5168C784.65 -65.4157 784.688 -65.2557 784.974 -65.1546C785.222 -65.2136 785.431 -65.4327 785.431 -65.4327C785.393 -65.5928 785.107 -65.6939 784.821 -65.7949C784.573 -65.7359 784.364 -65.5168 784.364 -65.5168ZM841.934 -84.4664C842.182 -84.5255 842.221 -84.3654 842.468 -84.4244C842.716 -84.4834 842.926 -84.7025 843.174 -84.7615C842.926 -84.7025 842.888 -84.8626 842.64 -84.8036C842.64 -84.8036 842.182 -84.5255 841.934 -84.4664ZM666.956 -47.0375C667.166 -47.2565 667.166 -47.2566 667.376 -47.4756C667.128 -47.4166 666.842 -47.5177 666.594 -47.4587C666.594 -47.4587 666.384 -47.2396 666.136 -47.1806C666.422 -47.0795 666.708 -46.9784 666.956 -47.0375ZM416.216 9.95084C415.93 9.84978 415.93 9.84978 415.644 9.74872C415.434 9.96781 415.472 10.1279 415.262 10.347C415.262 10.347 415.548 10.448 415.796 10.389C416.044 10.33 416.254 10.1109 416.216 9.95084ZM483.053 -7.4838C483.339 -7.38274 483.378 -7.22267 483.664 -7.12161C483.873 -7.3407 484.121 -7.39972 484.121 -7.39972C484.083 -7.55979 483.797 -7.66085 483.511 -7.76191C483.263 -7.70289 483.053 -7.4838 483.053 -7.4838ZM313.815 28.7479C314.025 28.5288 314.273 28.4697 314.483 28.2506C314.235 28.3097 314.196 28.1496 313.949 28.2086C313.701 28.2676 313.491 28.4867 313.243 28.5457C313.529 28.6468 313.529 28.6468 313.815 28.7479ZM315.361 23.1363C315.151 23.3554 314.903 23.4145 314.693 23.6335C314.941 23.5745 314.979 23.7346 315.227 23.6756C315.475 23.6166 315.685 23.3975 315.933 23.3385C315.933 23.3385 315.647 23.2374 315.361 23.1363ZM782.881 -91.5507C782.595 -91.6518 782.557 -91.8119 782.271 -91.9129C782.023 -91.8539 781.813 -91.6348 781.813 -91.6348C781.851 -91.4748 782.137 -91.3737 782.423 -91.2726C782.671 -91.3317 782.919 -91.3907 782.881 -91.5507ZM702.123 -75.3692C702.409 -75.2681 702.409 -75.2681 702.695 -75.1671C702.905 -75.3862 702.867 -75.5462 703.077 -75.7653C703.077 -75.7653 702.791 -75.8664 702.543 -75.8074C702.295 -75.7483 702.333 -75.5883 702.123 -75.3692ZM500.352 -28.3477C500.066 -28.4488 500.066 -28.4488 499.78 -28.5498C499.57 -28.3307 499.608 -28.1707 499.399 -27.9516C499.399 -27.9516 499.685 -27.8505 499.933 -27.9095C499.933 -27.9095 500.142 -28.1286 500.352 -28.3477ZM697.394 -75.4274C697.642 -75.4864 697.852 -75.7055 697.852 -75.7055C697.814 -75.8656 697.528 -75.9666 697.242 -76.0677C697.032 -75.8486 696.784 -75.7896 696.784 -75.7896C696.822 -75.6295 697.108 -75.5284 697.394 -75.4274ZM690.377 -74.095C690.663 -73.9939 690.663 -73.9939 690.911 -74.053C691.159 -74.112 691.368 -74.3311 691.616 -74.3901C691.368 -74.3311 691.33 -74.4911 691.082 -74.4321C690.796 -74.5332 690.587 -74.3141 690.377 -74.095ZM378.538 -0.869415C378.328 -0.650321 378.328 -0.650321 378.119 -0.431228C378.367 -0.490244 378.653 -0.389199 378.901 -0.448216C378.901 -0.448216 379.11 -0.667302 379.358 -0.726319C379.072 -0.827379 378.786 -0.928432 378.538 -0.869415ZM434.926 -15.9854C435.174 -16.0444 435.384 -16.2635 435.384 -16.2635C435.346 -16.4236 435.06 -16.5246 434.774 -16.6257C434.526 -16.5666 434.316 -16.3475 434.316 -16.3475C434.602 -16.2465 434.64 -16.0864 434.926 -15.9854ZM499.647 -32.4086C499.933 -32.3075 499.933 -32.3076 500.219 -32.2065C500.429 -32.4256 500.391 -32.5856 500.601 -32.8047C500.601 -32.8047 500.315 -32.9058 500.067 -32.8468C499.819 -32.7878 499.857 -32.6277 499.647 -32.4086ZM632.503 -67.421C632.293 -67.2019 632.293 -67.2019 632.083 -66.9828C632.331 -67.0418 632.617 -66.9407 632.865 -66.9998C632.865 -66.9998 633.075 -67.2189 633.323 -67.2779C633.037 -67.3789 632.751 -67.48 632.503 -67.421ZM533.325 -49.3912C533.573 -49.4502 533.783 -49.6693 533.783 -49.6693C533.745 -49.8294 533.459 -49.9304 533.173 -50.0315C532.925 -49.9725 532.715 -49.7534 532.715 -49.7534C533.039 -49.4922 533.039 -49.4923 533.325 -49.3912ZM340.383 -3.79509C340.669 -3.69403 340.707 -3.53396 340.993 -3.4329C341.241 -3.49191 341.451 -3.71101 341.451 -3.71101C341.413 -3.87108 341.127 -3.97214 340.841 -4.0732C340.555 -4.17426 340.345 -3.95517 340.383 -3.79509ZM343.281 -4.82345C343.491 -5.04254 343.739 -5.10157 343.739 -5.10157C343.701 -5.26164 343.415 -5.36269 343.129 -5.46375C342.881 -5.40473 342.671 -5.18564 342.671 -5.18564C342.709 -5.02557 342.995 -4.92451 343.281 -4.82345ZM537.025 -53.655C537.311 -53.554 537.349 -53.3939 537.635 -53.2928C537.883 -53.3518 538.093 -53.5709 538.093 -53.5709C538.055 -53.731 537.769 -53.8321 537.483 -53.9331C537.483 -53.9331 537.235 -53.8741 537.025 -53.655ZM531.667 -53.0559C531.381 -53.157 531.343 -53.3171 531.057 -53.4181C530.809 -53.3591 530.599 -53.14 530.599 -53.14C530.637 -52.9799 530.923 -52.8789 531.209 -52.7778C531.247 -52.6177 531.457 -52.8368 531.667 -53.0559ZM558.059 -61.0306C558.345 -60.9296 558.383 -60.7695 558.669 -60.6685C558.917 -60.7275 559.127 -60.9466 559.127 -60.9466C559.089 -61.1067 558.802 -61.2077 558.516 -61.3088C558.269 -61.2497 558.059 -61.0306 558.059 -61.0306ZM530.294 -54.4206C530.58 -54.3195 530.618 -54.1595 530.904 -54.0584C531.152 -54.1174 531.362 -54.3365 531.362 -54.3365C531.324 -54.4966 531.038 -54.5976 530.752 -54.6987C530.504 -54.6397 530.542 -54.4796 530.294 -54.4206ZM555.218 -63.0607C555.428 -63.2798 555.676 -63.3388 555.885 -63.5579C555.638 -63.4989 555.599 -63.6589 555.352 -63.5999C555.104 -63.5409 554.894 -63.3218 554.646 -63.2628C554.684 -63.1027 554.97 -63.0017 555.218 -63.0607ZM513.952 -53.7438C513.742 -53.5248 513.495 -53.4658 513.285 -53.2467C513.571 -53.1456 513.571 -53.1456 513.819 -53.2046C514.067 -53.2636 514.276 -53.4827 514.524 -53.5417C514.238 -53.6428 513.99 -53.5838 513.952 -53.7438ZM540.897 -60.497C541.183 -60.396 541.183 -60.396 541.469 -60.2949C541.679 -60.514 541.641 -60.6741 541.851 -60.8931C541.851 -60.8931 541.565 -60.9942 541.317 -60.9352C541.069 -60.8762 540.859 -60.6571 540.897 -60.497ZM535.119 -59.4597C534.909 -59.2406 534.662 -59.1816 534.452 -58.9625C534.7 -59.0215 534.738 -58.8615 534.986 -58.9205C535.234 -58.9795 535.443 -59.1986 535.691 -59.2576C535.405 -59.3587 535.367 -59.5187 535.119 -59.4597Z" fill="#EAEAEA"/>
<path d="M51.3649 319.826C51.0148 322.977 45.9822 327.18 44.2304 329.728C41.6698 333.453 38.6087 335.418 34.5127 336.678C25.85 339.344 21.3947 331.995 15.6924 326.715C10.7968 322.182 4.46642 316.459 -2.02082 314.537C-10.3402 312.072 -19.2414 316.279 -27.2376 317.612" stroke="#767B35" stroke-width="3" stroke-linecap="round"/>
</g>
<defs>
<clipPath id="clip0_56_2">
<rect width="360" height="640" fill="white"/>
</clipPath>
</defs>
</svg>
